<?xml version="1.0" encoding="UTF-8" standalone="no"?><!DOCTYPE svg PUBLIC "-//W3C//DTD SVG 1.1//EN" "http://www.w3.org/Graphics/SVG/1.1/DTD/svg11.dtd"><svg width="100%" height="100%" viewBox="0 0 1199 170" version="1.1" xmlns="http://www.w3.org/2000/svg" xmlns:xlink="http://www.w3.org/1999/xlink" xml:space="preserve" xmlns:serif="http://www.serif.com/" style="fill-rule:evenodd;clip-rule:evenodd;stroke-linejoin:round;stroke-miterlimit:2;"><rect x="202.593" y="99.979" width="4.463" height="40.056" style="fill:#2b2f31;fill-rule:nonzero;"/><path d="M219.434,118.095l0.106,0c1.807,-2.497 4.197,-3.719 7.119,-3.719c1.647,0 3.081,0.266 4.197,0.85c1.116,0.585 1.966,1.328 2.603,2.285c0.638,1.009 1.063,2.125 1.328,3.4c0.266,1.328 0.372,2.762 0.372,4.303l0,14.822l-4.25,0l0,-14.078c0,-1.222 -0.053,-2.232 -0.159,-3.082c-0.107,-0.85 -0.319,-1.647 -0.638,-2.337c-0.372,-0.691 -0.903,-1.275 -1.594,-1.647c-0.743,-0.372 -1.7,-0.585 -2.868,-0.585c-1.382,0 -2.497,0.266 -3.347,0.85c-0.85,0.585 -1.488,1.382 -1.86,2.285c-0.425,0.903 -0.69,1.912 -0.796,2.975c-0.16,1.116 -0.213,2.337 -0.213,3.772l0,11.847l-4.25,0l0,-24.969l4.25,0l0,3.028Z" style="fill:#2b2f31;fill-rule:nonzero;"/><path d="M247.484,118.095l0.106,0c1.807,-2.497 4.197,-3.719 7.119,-3.719c1.647,0 3.081,0.266 4.197,0.85c1.116,0.585 1.966,1.328 2.603,2.285c0.638,1.009 1.063,2.125 1.328,3.4c0.266,1.328 0.372,2.762 0.372,4.303l0,14.822l-4.25,0l0,-14.078c0,-1.222 -0.053,-2.232 -0.159,-3.082c-0.107,-0.85 -0.319,-1.647 -0.638,-2.337c-0.372,-0.691 -0.903,-1.275 -1.594,-1.647c-0.743,-0.372 -1.7,-0.585 -2.868,-0.585c-1.382,0 -2.497,0.266 -3.347,0.85c-0.85,0.585 -1.488,1.382 -1.86,2.285c-0.425,0.903 -0.69,1.912 -0.796,2.975c-0.16,1.116 -0.213,2.337 -0.213,3.772l0,11.847l-4.25,0l0,-24.969l4.25,0l0,3.028Z" style="fill:#2b2f31;fill-rule:nonzero;"/><path d="M273.409,128.454c0.053,2.338 0.797,4.303 2.338,5.897c1.54,1.647 3.453,2.444 5.843,2.444c1.7,0 3.188,-0.478 4.41,-1.381c1.222,-0.903 2.284,-2.125 3.187,-3.772l3.613,2.072c-1.222,2.231 -2.763,3.931 -4.728,5.153c-1.966,1.222 -4.25,1.859 -6.8,1.859c-1.86,0 -3.507,-0.319 -4.994,-1.009c-1.541,-0.638 -2.816,-1.541 -3.878,-2.71c-1.116,-1.168 -1.913,-2.549 -2.497,-4.143c-0.585,-1.541 -0.85,-3.241 -0.85,-4.994c0,-1.859 0.265,-3.613 0.797,-5.259c0.531,-1.647 1.328,-3.082 2.39,-4.304c1.01,-1.221 2.285,-2.231 3.825,-2.921c1.488,-0.691 3.188,-1.01 5.1,-1.01c1.86,0 3.56,0.319 5.047,1.01c1.488,0.69 2.763,1.593 3.772,2.815c1.009,1.222 1.753,2.656 2.284,4.197c0.532,1.594 0.797,3.294 0.797,5.047c0,0.106 0,0.266 -0.053,0.478l0,0.531l-19.603,0Zm15.141,-3.612c-0.266,-1.86 -1.116,-3.4 -2.497,-4.675c-1.381,-1.222 -2.975,-1.86 -4.835,-1.86c-1.859,0 -3.506,0.638 -4.94,1.913c-1.488,1.275 -2.391,2.816 -2.656,4.622l14.928,0Z" style="fill:#2b2f31;fill-rule:nonzero;"/><path d="M303.106,118.095l0.106,0c1.806,-2.497 4.197,-3.719 7.119,-3.719c1.647,0 3.081,0.266 4.197,0.85c1.115,0.585 1.965,1.328 2.603,2.285c0.637,1.009 1.062,2.125 1.328,3.4c0.266,1.328 0.372,2.762 0.372,4.303l0,14.822l-4.25,0l0,-14.078c0,-1.222 -0.053,-2.232 -0.159,-3.082c-0.107,-0.85 -0.319,-1.647 -0.638,-2.337c-0.372,-0.691 -0.903,-1.275 -1.594,-1.647c-0.743,-0.372 -1.7,-0.585 -2.868,-0.585c-1.382,0 -2.497,0.266 -3.347,0.85c-0.85,0.585 -1.488,1.382 -1.86,2.285c-0.425,0.903 -0.69,1.912 -0.797,2.975c-0.159,1.116 -0.212,2.337 -0.212,3.772l0,11.847l-4.25,0l0,-24.969l4.25,0l0,3.028Z" style="fill:#2b2f31;fill-rule:nonzero;"/><rect x="322.975" y="125.267" width="10.891" height="3.931" style="fill:#2b2f31;fill-rule:nonzero;"/><path d="M366.697,113.633c0.265,-0.16 0.531,-0.372 0.903,-0.638c1.328,-1.009 2.39,-1.966 3.081,-2.763c0.691,-0.796 1.009,-1.859 1.009,-3.081c0,-1.222 -0.425,-2.178 -1.275,-2.975c-0.85,-0.744 -1.859,-1.115 -3.081,-1.115c-1.222,0 -2.284,0.425 -3.134,1.275c-0.85,0.85 -1.275,1.912 -1.275,3.134c0,0.797 0.159,1.487 0.478,2.125c0.319,0.637 0.797,1.381 1.487,2.284l0.478,0.691l0.957,1.328l0.372,-0.265Zm10.146,20.771c-2.178,1.966 -4.25,3.507 -6.321,4.622c-2.072,1.116 -4.197,1.7 -6.482,1.7c-1.54,0 -2.975,-0.265 -4.356,-0.797c-1.434,-0.531 -2.656,-1.328 -3.772,-2.337c-1.115,-1.01 -2.019,-2.178 -2.603,-3.506c-0.637,-1.329 -0.956,-2.763 -0.956,-4.303c0,-1.594 0.265,-3.029 0.797,-4.304c0.531,-1.275 1.222,-2.443 2.125,-3.453c0.903,-1.009 1.859,-1.859 2.922,-2.656c1.009,-0.744 2.337,-1.647 3.984,-2.763l0.478,-0.318c-0.159,-0.266 -0.319,-0.425 -0.425,-0.585c-1.116,-1.54 -2.019,-2.922 -2.603,-4.143c-0.638,-1.169 -0.956,-2.444 -0.956,-3.772c0,-2.497 0.85,-4.569 2.497,-6.163c1.646,-1.54 3.771,-2.337 6.268,-2.337c2.338,0 4.357,0.743 6.003,2.178c1.647,1.487 2.497,3.4 2.497,5.684c0,1.116 -0.159,2.125 -0.531,3.028c-0.372,0.957 -0.903,1.807 -1.487,2.55c-0.638,0.797 -1.329,1.435 -2.019,2.019c-0.691,0.584 -1.647,1.328 -2.763,2.178l-0.265,0.213l8.447,10.784l4.515,-5.259l3.241,2.656l-5.1,5.95l6.8,8.766l-5.631,0l-4.304,-5.632Zm-13.493,-13.547l-0.053,0.054c-2.072,1.434 -3.719,2.762 -4.835,3.984c-1.169,1.222 -1.753,2.762 -1.753,4.569c0,0.903 0.213,1.806 0.584,2.656c0.372,0.903 0.85,1.647 1.541,2.338c0.691,0.69 1.434,1.274 2.284,1.646c0.85,0.372 1.754,0.585 2.657,0.585c1.753,0 3.4,-0.478 4.94,-1.435c1.541,-0.956 3.294,-2.284 5.26,-4.037l0.212,-0.16l-8.925,-11.475l-1.912,1.275Z" style="fill:#2b2f31;fill-rule:nonzero;"/><path d="M413.606,128.667l-4.834,11.369l-4.888,0l18.488,-41.969l18.009,41.969l-4.941,0l-4.728,-11.369l-17.106,0Zm8.659,-20.188l-6.853,16.044l13.547,0l-6.694,-16.044Z" style="fill:#2b2f31;fill-rule:nonzero;"/><path d="M448.668,128.986c0,1.222 0.054,2.231 0.213,3.134c0.106,0.903 0.372,1.7 0.744,2.391c0.372,0.69 0.903,1.275 1.7,1.646c0.743,0.425 1.753,0.638 2.975,0.638c1.222,0 2.231,-0.213 3.028,-0.638c0.744,-0.371 1.328,-0.956 1.7,-1.646c0.372,-0.691 0.584,-1.488 0.744,-2.391c0.106,-0.903 0.159,-1.912 0.159,-3.134l0,-13.919l4.25,0l0,14.397c0,3.559 -0.744,6.322 -2.284,8.287c-1.541,1.966 -4.091,2.975 -7.597,2.975c-3.507,0 -6.003,-1.009 -7.544,-2.975c-1.541,-1.965 -2.338,-4.728 -2.338,-8.287l0,-14.397l4.25,0l0,13.919Z" style="fill:#2b2f31;fill-rule:nonzero;"/><path d="M471.725,118.998l-2.338,0l0,-3.931l2.338,0l0,-7.65c0,-1.7 0.159,-3.241 0.425,-4.622c0.265,-1.328 0.85,-2.55 1.647,-3.559c0.956,-1.222 2.178,-2.125 3.718,-2.763c1.541,-0.637 3.082,-0.956 4.728,-0.956c1.435,0 2.763,0.265 4.038,0.744c1.275,0.478 2.391,1.168 3.294,2.071c0.903,0.904 1.647,1.913 2.178,3.135c0.531,1.222 0.797,2.603 0.797,4.037c0,1.647 -0.372,3.135 -1.169,4.569c-0.797,1.434 -1.859,2.497 -3.294,3.188c1.275,0.425 2.444,1.062 3.506,1.965c1.063,0.903 1.966,1.913 2.71,3.028c0.744,1.169 1.328,2.391 1.753,3.719c0.372,1.328 0.584,2.709 0.584,4.091c0,2.018 -0.425,3.931 -1.222,5.684c-0.796,1.806 -1.912,3.347 -3.346,4.675c-1.435,1.328 -3.029,2.391 -4.888,3.134c-1.859,0.744 -3.772,1.116 -5.791,1.169l0,-3.931c1.488,-0.106 2.922,-0.425 4.25,-1.009c1.329,-0.585 2.444,-1.328 3.454,-2.338c1.009,-0.956 1.753,-2.072 2.337,-3.4c0.584,-1.275 0.85,-2.656 0.85,-4.144c0,-1.54 -0.319,-2.975 -0.956,-4.409c-0.691,-1.381 -1.594,-2.55 -2.816,-3.453c-0.903,-0.691 -1.965,-1.275 -3.187,-1.647c-1.222,-0.372 -2.497,-0.584 -3.932,-0.691l0,-3.931c2.019,0 3.666,-0.584 4.994,-1.753c1.275,-1.169 1.913,-2.763 1.913,-4.728c0,-1.753 -0.585,-3.135 -1.7,-4.25c-1.169,-1.063 -2.657,-1.594 -4.41,-1.594c-1.222,0 -2.39,0.266 -3.4,0.797c-1.009,0.531 -1.753,1.328 -2.125,2.391c-0.265,0.69 -0.478,1.593 -0.531,2.656c-0.106,1.062 -0.159,2.444 -0.159,4.091l0,30.653l-4.25,0l0,-21.038Z" style="fill:#2b2f31;fill-rule:nonzero;"/><path d="M504.715,128.454c0.053,2.338 0.797,4.303 2.338,5.897c1.54,1.647 3.453,2.444 5.844,2.444c1.7,0 3.187,-0.478 4.409,-1.381c1.222,-0.903 2.284,-2.125 3.187,-3.772l3.613,2.072c-1.222,2.231 -2.763,3.931 -4.728,5.153c-1.966,1.222 -4.25,1.859 -6.8,1.859c-1.86,0 -3.506,-0.319 -4.994,-1.009c-1.541,-0.638 -2.816,-1.541 -3.878,-2.71c-1.116,-1.168 -1.913,-2.549 -2.497,-4.143c-0.584,-1.541 -0.85,-3.241 -0.85,-4.994c0,-1.859 0.266,-3.613 0.797,-5.259c0.531,-1.647 1.328,-3.082 2.391,-4.304c1.009,-1.221 2.284,-2.231 3.825,-2.921c1.487,-0.691 3.187,-1.01 5.1,-1.01c1.859,0 3.559,0.319 5.046,1.01c1.488,0.69 2.763,1.593 3.772,2.815c1.01,1.222 1.753,2.656 2.285,4.197c0.531,1.594 0.797,3.294 0.797,5.047c0,0.106 0,0.266 -0.054,0.478l0,0.531l-19.603,0Zm15.141,-3.612c-0.266,-1.86 -1.116,-3.4 -2.497,-4.675c-1.381,-1.222 -2.975,-1.86 -4.834,-1.86c-1.86,0 -3.507,0.638 -4.941,1.913c-1.487,1.275 -2.391,2.816 -2.656,4.622l14.928,0Z" style="fill:#2b2f31;fill-rule:nonzero;"/><path d="M534.412,118.095l0.106,0c1.807,-2.497 4.197,-3.719 7.119,-3.719c1.647,0 3.081,0.266 4.197,0.85c1.116,0.585 1.966,1.328 2.603,2.285c0.638,1.009 1.063,2.125 1.328,3.4c0.266,1.328 0.372,2.762 0.372,4.303l0,14.822l-4.25,0l0,-14.078c0,-1.222 -0.053,-2.232 -0.159,-3.082c-0.106,-0.85 -0.319,-1.647 -0.638,-2.337c-0.372,-0.691 -0.903,-1.275 -1.593,-1.647c-0.744,-0.372 -1.7,-0.585 -2.869,-0.585c-1.381,0 -2.497,0.266 -3.347,0.85c-0.85,0.585 -1.488,1.382 -1.859,2.285c-0.425,0.903 -0.691,1.912 -0.797,2.975c-0.16,1.116 -0.213,2.337 -0.213,3.772l0,11.847l-4.25,0l0,-24.969l4.25,0l0,3.028Z" style="fill:#2b2f31;fill-rule:nonzero;"/><path d="M566.872,118.998c-1.01,0.478 -1.913,1.169 -2.604,2.019c-1.487,1.753 -2.231,3.825 -2.231,6.269c0,2.603 0.744,4.834 2.231,6.693c1.435,1.86 3.454,2.816 5.95,2.816c2.604,0 4.675,-0.903 6.163,-2.762c1.434,-1.807 2.178,-4.038 2.178,-6.694c0,-2.603 -0.744,-4.728 -2.284,-6.482c-1.541,-1.7 -3.56,-2.55 -6.11,-2.55c-1.222,0 -2.284,0.213 -3.293,0.691Zm-8.872,-22.791l4.25,0l0,22.419l0.106,0c1.009,-1.328 2.284,-2.39 3.772,-3.134c1.487,-0.744 3.081,-1.116 4.781,-1.116c1.806,0 3.453,0.319 4.941,1.01c1.487,0.69 2.762,1.646 3.825,2.868c1.062,1.222 1.859,2.657 2.443,4.25c0.532,1.594 0.797,3.294 0.797,5.047c0,1.753 -0.265,3.4 -0.797,4.994c-0.584,1.594 -1.381,2.975 -2.443,4.197c-1.063,1.222 -2.338,2.231 -3.825,2.922c-1.488,0.69 -3.135,1.062 -4.888,1.062c-1.753,0 -3.347,-0.372 -4.834,-1.062c-1.541,-0.691 -2.763,-1.753 -3.772,-3.082l-0.106,0l0,3.454l-4.25,0l0,-43.829Z" style="fill:#2b2f31;fill-rule:nonzero;"/><path d="M595.931,118.998c-1.009,0.478 -1.913,1.169 -2.603,2.019c-1.488,1.753 -2.231,3.825 -2.231,6.269c0,2.603 0.743,4.834 2.231,6.693c1.434,1.86 3.453,2.816 5.95,2.816c2.603,0 4.675,-0.903 6.162,-2.762c1.435,-1.807 2.178,-4.038 2.178,-6.694c0,-2.603 -0.743,-4.728 -2.284,-6.482c-1.541,-1.7 -3.559,-2.55 -6.109,-2.55c-1.222,0 -2.285,0.213 -3.294,0.691Zm15.725,21.038l-4.25,0l0,-3.454l-0.106,0c-2.178,2.763 -5.047,4.144 -8.607,4.144c-1.753,0 -3.4,-0.372 -4.887,-1.062c-1.488,-0.691 -2.763,-1.647 -3.772,-2.869c-1.062,-1.222 -1.859,-2.656 -2.444,-4.25c-0.584,-1.541 -0.85,-3.188 -0.85,-4.941c0,-1.806 0.266,-3.506 0.85,-5.1c0.532,-1.593 1.328,-3.028 2.391,-4.25c1.009,-1.222 2.284,-2.178 3.772,-2.868c1.487,-0.691 3.134,-1.01 4.994,-1.01c1.7,0 3.293,0.372 4.781,1.116c1.487,0.744 2.762,1.806 3.772,3.134l0.106,0l0,-3.559l4.25,0l0,24.969Z" style="fill:#2b2f31;fill-rule:nonzero;"/><path d="M623.45,128.986c0,1.222 0.053,2.231 0.212,3.134c0.106,0.903 0.372,1.7 0.744,2.391c0.372,0.69 0.903,1.275 1.7,1.646c0.744,0.425 1.753,0.638 2.975,0.638c1.222,0 2.231,-0.213 3.028,-0.638c0.744,-0.371 1.328,-0.956 1.7,-1.646c0.372,-0.691 0.584,-1.488 0.744,-2.391c0.106,-0.903 0.159,-1.912 0.159,-3.134l0,-13.919l4.25,0l0,14.397c0,3.559 -0.744,6.322 -2.284,8.287c-1.541,1.966 -4.091,2.975 -7.597,2.975c-3.506,0 -6.003,-1.009 -7.544,-2.975c-1.54,-1.965 -2.337,-4.728 -2.337,-8.287l0,-14.397l4.25,0l0,13.919Z" style="fill:#2b2f31;fill-rule:nonzero;"/><path d="M198.743,81.848c0,1.969 -0.093,3.469 -0.375,4.688c-0.281,1.218 -0.75,2.25 -1.406,2.906c-0.656,0.656 -1.5,1.125 -2.531,1.406c-1.031,0.281 -2.25,0.469 -3.75,0.563c-0.469,0.375 -0.656,0.75 -0.656,1.031c0,0.469 0.281,0.844 0.75,1.125c2.531,-0.094 4.875,-0.281 6.937,-0.375c2.063,-0.094 4.031,-0.094 6,-0.094c1.969,0 3.938,0.094 5.906,0.281c1.969,0.188 4.219,0.282 6.938,0.282c4.594,0 9,-0.657 13.125,-1.969c4.125,-1.313 7.687,-3.375 10.781,-6.188c3.094,-2.718 5.531,-6.281 7.313,-10.593c1.781,-4.313 2.625,-9.469 2.625,-15.469c0,-5.531 -0.938,-10.219 -2.907,-14.063c-1.968,-3.843 -4.5,-6.937 -7.406,-9.281c-3,-2.344 -6.281,-4.125 -9.75,-5.25c-3.469,-1.031 -6.844,-1.594 -9.937,-1.594c-4.032,0 -7.219,0 -9.75,0.094c-2.532,0.094 -4.688,0.188 -6.657,0.188c-1.781,0 -3.656,0 -5.531,-0.094c-1.969,-0.094 -4.125,-0.094 -6.469,-0.094c-0.468,0.281 -0.656,0.563 -0.656,1.031c0,0.282 0.188,0.657 0.469,0.938c1.594,0.094 2.812,0.281 3.75,0.656c0.844,0.469 1.594,1.031 2.062,1.875c0.469,0.844 0.844,1.875 1.032,3.094c0.093,1.312 0.187,2.812 0.187,4.594l-0.094,40.312Zm1.594,-40.312c0,-2.907 -0.187,-5.063 -0.469,-6.657c-0.375,-1.593 -1.125,-2.718 -2.343,-3.375c0.656,0.094 1.593,0.188 2.906,0.282c1.312,0.093 2.531,0.187 3.562,0.187c1.313,0 3,-0.094 5.157,-0.281c2.062,-0.188 5.062,-0.281 9.093,-0.281c3,0 6.188,0.562 9.563,1.593c3.375,1.032 6.469,2.719 9.281,5.063c2.813,2.344 5.156,5.344 7.031,9c1.875,3.656 2.813,8.156 2.813,13.406c0,5.813 -0.75,10.688 -2.25,14.719c-1.5,4.031 -3.563,7.312 -6.188,9.844c-2.718,2.531 -5.906,4.406 -9.562,5.531c-3.75,1.219 -7.875,1.781 -12.375,1.781c-2.531,0 -4.781,-0.187 -6.938,-0.656c-2.156,-0.469 -4.125,-0.656 -5.906,-0.656c-1.5,0 -2.906,0.093 -4.312,0.187c-1.407,0.094 -2.438,0.281 -3.094,0.375c1.5,-0.75 2.531,-1.875 3.187,-3.281c0.563,-1.406 0.844,-3.563 0.844,-6.469l0,-40.312Zm5.063,39.937c0,3.375 0.937,5.719 2.906,7.031c1.969,1.407 4.781,2.063 8.625,2.063c2.719,0 5.531,-0.469 8.437,-1.406c2.907,-0.938 5.532,-2.438 7.875,-4.594c2.344,-2.063 4.313,-4.875 5.907,-8.344c1.5,-3.469 2.25,-7.687 2.25,-12.75c0,-4.5 -0.657,-8.625 -2.063,-12.375c-1.406,-3.656 -3.375,-6.844 -5.812,-9.562c-2.438,-2.625 -5.344,-4.688 -8.625,-6.188c-3.375,-1.5 -7.032,-2.25 -10.875,-2.25c-1.782,0 -3.282,0.188 -4.313,0.563c-1.125,0.375 -1.969,0.843 -2.625,1.5c-0.656,0.656 -1.125,1.406 -1.312,2.25c-0.282,0.937 -0.375,1.875 -0.375,2.906l0,41.156Zm3.375,-41.437c0,-1.594 0.281,-2.907 0.937,-4.032c0.656,-1.031 2.063,-1.593 4.313,-1.593c3.656,0 7.031,0.656 10.218,2.062c3.188,1.406 5.907,3.469 8.25,6c2.344,2.531 4.125,5.625 5.532,9.188c1.312,3.562 1.968,7.5 1.968,11.812c0,4.781 -0.656,8.813 -1.968,12c-1.407,3.281 -3.094,5.813 -5.25,7.781c-2.157,1.969 -4.5,3.282 -7.125,4.125c-2.719,0.844 -5.344,1.219 -7.875,1.219c-3.563,0 -5.907,-0.656 -7.125,-2.062c-1.219,-1.313 -1.875,-3.375 -1.875,-6.188l0,-40.312Z" style="fill:#996d23;fill-rule:nonzero;"/><path d="M276.368,31.317c-3.937,1.969 -7.218,4.594 -9.843,7.875c-2.719,3.281 -4.688,6.937 -6.094,11.062c-1.406,4.125 -2.156,8.344 -2.156,12.563c0,4.125 0.75,8.062 2.156,11.906c1.406,3.844 3.469,7.313 6.187,10.219c2.719,3 5.907,5.344 9.75,7.125c3.844,1.781 8.157,2.625 12.938,2.625c5.062,0 9.562,-0.938 13.406,-2.906c3.844,-1.875 7.125,-4.407 9.844,-7.594c2.625,-3.188 4.594,-6.844 6,-11.063c1.312,-4.218 1.969,-8.625 1.969,-13.218c0,-4.219 -0.75,-8.157 -2.157,-12c-1.406,-3.844 -3.468,-7.219 -6.093,-10.125c-2.719,-2.907 -5.907,-5.157 -9.657,-6.938c-3.843,-1.687 -8.062,-2.531 -12.843,-2.531c-5.063,0 -9.563,1.031 -13.407,3Zm23.813,2.531c3.469,1.594 6.469,3.844 9,6.563c2.437,2.718 4.312,5.906 5.719,9.468c1.406,3.657 2.062,7.407 2.062,11.344c0,4.125 -0.562,8.063 -1.594,11.906c-1.031,3.844 -2.718,7.313 -4.968,10.219c-2.25,3 -5.063,5.344 -8.532,7.125c-3.468,1.781 -7.593,2.719 -12.375,2.719c-4.5,0 -8.531,-0.844 -12.187,-2.531c-3.656,-1.688 -6.75,-3.938 -9.281,-6.75c-2.625,-2.813 -4.594,-6.094 -6,-9.75c-1.407,-3.657 -2.157,-7.407 -2.157,-11.344c0,-4.031 0.657,-7.875 1.969,-11.625c1.219,-3.75 3.094,-7.125 5.625,-10.031c2.438,-2.907 5.438,-5.344 9,-7.125c3.469,-1.782 7.5,-2.625 12,-2.625c4.313,0 8.25,0.843 11.719,2.437Zm-22.313,1.969c-2.718,1.594 -4.968,3.562 -6.75,6.094c-1.875,2.531 -3.281,5.437 -4.218,8.718c-1.032,3.282 -1.5,6.75 -1.5,10.219c0,3.844 0.562,7.5 1.687,10.969c1.125,3.562 2.813,6.656 4.969,9.375c2.156,2.719 4.781,4.969 7.875,6.562c3.094,1.594 6.656,2.438 10.687,2.438c3.657,0 6.844,-0.75 9.469,-2.25c2.625,-1.406 4.781,-3.375 6.469,-5.813c1.594,-2.343 2.812,-5.062 3.656,-8.156c0.75,-3.094 1.125,-6.187 1.125,-9.469c0,-3.468 -0.469,-7.031 -1.406,-10.687c-0.938,-3.656 -2.344,-6.938 -4.313,-9.938c-1.968,-3 -4.5,-5.437 -7.593,-7.406c-3.094,-1.969 -6.75,-2.906 -11.063,-2.906c-3.469,0 -6.469,0.75 -9.094,2.25Zm19.313,1.875c2.906,1.875 5.25,4.219 7.125,7.031c1.781,2.906 3.187,6.094 4.125,9.563c0.844,3.468 1.312,6.937 1.312,10.218c0,2.907 -0.281,5.719 -0.843,8.438c-0.657,2.719 -1.594,5.25 -3,7.406c-1.407,2.156 -3.282,3.938 -5.532,5.25c-2.25,1.406 -4.968,2.063 -8.25,2.063c-3.843,0 -7.218,-0.844 -10.031,-2.438c-2.906,-1.594 -5.25,-3.656 -7.125,-6.281c-1.875,-2.625 -3.281,-5.625 -4.125,-9c-0.937,-3.375 -1.406,-6.844 -1.406,-10.406c0,-3.375 0.375,-6.563 1.219,-9.563c0.75,-2.906 1.875,-5.531 3.375,-7.781c1.5,-2.156 3.375,-3.938 5.531,-5.25c2.156,-1.313 4.687,-1.969 7.406,-1.969c3.938,0 7.313,0.938 10.219,2.719Z" style="fill:#996d23;fill-rule:nonzero;"/><path d="M342.834,42.473c1.594,3.656 3.375,7.875 5.344,12.469c1.875,4.687 3.75,9.375 5.625,13.969c1.875,4.593 3.656,9 5.344,13.125c1.593,4.125 3,7.5 4.031,10.125c0.656,0.843 1.687,1.218 3.187,1.218c1.407,0 2.719,-0.375 3.844,-1.218c2.156,-5.719 4.5,-12.282 7.219,-19.688c2.625,-7.406 5.719,-16.125 9.281,-26.062c0.281,-0.657 0.469,-1.219 0.656,-1.875c0.188,-0.563 0.375,-1.219 0.657,-1.875l4.031,39.562c0.187,1.594 0.281,2.906 0.281,3.938c0,1.218 -0.094,2.156 -0.375,2.812c-0.281,0.656 -0.656,1.219 -1.312,1.594c-0.657,0.375 -1.407,0.656 -2.438,0.75c-1.031,0.187 -2.25,0.281 -3.75,0.375c-0.281,0.281 -0.469,0.562 -0.469,0.937c0,0.469 0.188,0.75 0.563,0.938c2.531,-0.094 4.687,-0.188 6.469,-0.281c1.781,-0.094 3.562,-0.188 5.437,-0.188c1.781,0 3.938,0 6.375,0.094c2.438,0.094 4.875,0.187 7.219,0.281c0.469,-0.281 0.656,-0.656 0.656,-1.031c0,-0.281 -0.094,-0.469 -0.375,-0.75c-1.594,-0.094 -2.906,-0.375 -3.844,-0.75c-1.031,-0.281 -1.781,-0.844 -2.25,-1.594c-0.562,-0.656 -0.937,-1.594 -1.218,-2.812c-0.282,-1.125 -0.563,-2.625 -0.75,-4.407l-4.969,-40.5c-0.094,-0.843 -0.188,-1.687 -0.281,-2.437c-0.094,-0.75 -0.094,-1.5 -0.094,-2.156c0,-1.032 0.094,-1.875 0.375,-2.625c0.187,-0.657 0.562,-1.313 1.125,-1.782c0.562,-0.468 1.312,-0.843 2.344,-1.125c0.937,-0.281 2.156,-0.468 3.562,-0.656c0.375,-0.281 0.563,-0.562 0.563,-0.937c0,-0.282 -0.188,-0.563 -0.563,-0.938c-2.344,0.094 -4.406,0.094 -6.094,0.188c-1.687,0.093 -3.187,0.187 -4.5,0.187c-0.843,0 -1.968,0 -3.187,-0.094c-1.313,0 -2.344,0 -3.188,-0.093c-0.468,0 -0.75,0.187 -0.843,0.562c-2.25,6.656 -4.969,14.25 -8.063,22.781c-3.187,8.625 -6.656,18 -10.406,28.032c-3.469,-8.532 -6.938,-17.063 -10.219,-25.688c-3.281,-8.531 -6.656,-17.156 -10.125,-25.687c-1.219,0.093 -2.625,0.187 -4.219,0.281c-1.687,0.094 -3.187,0.094 -4.406,0.094c-1.406,0 -2.812,-0.094 -4.312,-0.188c-1.5,-0.094 -3.282,-0.187 -5.25,-0.281c-0.469,0.187 -0.657,0.562 -0.657,1.031c0,0.281 0.094,0.563 0.375,0.844c2.625,0.281 4.594,0.844 5.907,1.687c1.218,0.844 1.875,2.532 1.875,5.25l-3.938,45.282c-0.187,1.875 -0.375,3.375 -0.656,4.406c-0.281,1.125 -0.75,1.969 -1.406,2.625c-0.657,0.656 -1.594,1.031 -2.625,1.219c-1.032,0.281 -2.438,0.375 -4.219,0.468c-0.281,0.282 -0.469,0.657 -0.469,0.938c0,0.281 0.188,0.562 0.563,0.75c1.218,0 2.25,0 3.187,-0.094c0.844,-0.094 1.688,-0.094 2.531,-0.187c0.844,-0.094 1.594,-0.094 2.344,-0.188l2.438,0c1.781,0 3.843,0.094 6.281,0.188c2.437,0.093 4.875,0.187 7.219,0.281c0.468,-0.281 0.656,-0.563 0.656,-0.938c0,-0.281 -0.094,-0.562 -0.375,-0.75c-1.594,-0.093 -2.906,-0.187 -4.031,-0.375c-1.125,-0.093 -2.063,-0.468 -2.813,-0.937c-0.75,-0.469 -1.312,-1.125 -1.594,-2.063c-0.375,-0.843 -0.562,-2.156 -0.562,-3.75l0,-1.031c0,-0.375 0,-0.75 0.094,-1.219l3.187,-40.031Zm-4.219,-3.844l0.094,-1.687c0,-1.594 -0.187,-2.719 -0.656,-3.563c-0.469,-0.843 -1.219,-1.5 -2.156,-1.968c0.656,0.093 1.312,0.187 1.968,0.281c0.563,0.094 1.125,0.187 1.782,0.187c0.656,0 1.593,-0.093 2.625,-0.187c1.031,-0.094 1.875,-0.188 2.531,-0.281c1.125,2.718 2.531,6.281 4.312,10.687c1.688,4.406 3.563,9.188 5.625,14.25c1.969,5.063 4.125,10.219 6.282,15.469c2.156,5.344 4.218,10.219 6.187,14.812l0.938,-2.25c1.687,-4.218 3.468,-8.718 5.437,-13.687c1.969,-4.969 3.844,-9.844 5.813,-14.719c1.875,-4.781 3.656,-9.375 5.25,-13.687c1.593,-4.313 3,-7.969 4.031,-10.875c0.562,0.093 1.219,0.187 1.875,0.281c0.656,0.094 1.219,0.094 1.781,0.094c0.844,0 1.594,-0.094 2.344,-0.188c0.75,-0.094 1.594,-0.281 2.437,-0.375c-1.218,0.469 -2.156,1.219 -2.718,2.156c-0.563,0.938 -0.844,2.438 -0.844,4.407c0,0.656 0,1.406 0.094,2.156c0.093,0.75 0.187,1.594 0.281,2.437l4.687,39.657c0.282,2.906 0.75,5.062 1.313,6.468c0.469,1.407 1.219,2.438 2.25,3.094c-0.844,-0.187 -1.781,-0.375 -2.719,-0.562c-1.031,-0.188 -1.969,-0.282 -2.812,-0.282c-0.844,0 -1.688,0.094 -2.438,0.282c-0.844,0.281 -1.594,0.468 -2.437,0.656c0.656,-0.563 1.218,-1.219 1.5,-1.875c0.281,-0.656 0.468,-1.688 0.468,-2.906c0,-1.032 -0.093,-2.438 -0.281,-4.125c-0.844,-7.969 -1.594,-15.282 -2.25,-21.844c-0.281,-2.813 -0.562,-5.625 -0.844,-8.344c-0.281,-2.719 -0.468,-5.156 -0.75,-7.406c-0.281,-2.25 -0.468,-4.125 -0.562,-5.719c-0.188,-1.5 -0.281,-2.437 -0.281,-2.906c-1.688,4.406 -3.469,9 -5.25,13.594c-1.782,4.593 -3.657,9.281 -5.438,13.875c-1.781,4.593 -3.656,9.187 -5.437,13.687c-1.782,4.594 -3.563,8.906 -5.157,13.125c-0.562,0.469 -1.125,0.656 -1.687,0.656c-0.656,0 -1.125,-0.187 -1.5,-0.562c-1.125,-2.719 -2.625,-6.281 -4.406,-10.875c-1.875,-4.594 -3.844,-9.469 -6,-14.813c-2.157,-5.343 -4.407,-10.687 -6.657,-16.218c-2.343,-5.438 -4.5,-10.407 -6.562,-14.907c-0.094,0.657 -0.094,1.407 -0.094,2.063c-0.094,0.562 -0.094,1.125 -0.094,1.781c0,0.656 0,1.313 -0.093,1.875l-3.469,41.719c-0.094,0.656 -0.094,1.219 -0.188,1.687c-0.093,0.469 -0.093,0.938 -0.093,1.407c0,1.968 0.093,3.375 0.375,4.406c0.281,1.031 0.843,1.875 1.687,2.531c-0.656,-0.187 -1.219,-0.375 -1.687,-0.469c-0.563,-0.093 -1.219,-0.187 -2.063,-0.187c-0.656,0 -1.219,0.094 -1.781,0.187c-0.656,0.188 -1.219,0.375 -1.875,0.469c0.844,-0.656 1.594,-1.5 2.156,-2.625c0.469,-1.125 0.844,-3 1.125,-5.531l4.031,-44.813Z" style="fill:#996d23;fill-rule:nonzero;"/><path d="M437.334,29.161c-0.281,0.093 -0.562,0.375 -0.844,1.031c-0.281,0.656 -0.562,1.594 -0.843,2.625c-0.282,1.031 -0.657,2.25 -1.032,3.656c-0.375,1.406 -0.843,2.906 -1.312,4.406l-13.688,40.688c-0.75,2.344 -1.406,4.125 -1.875,5.437c-0.562,1.313 -1.125,2.344 -1.781,3c-0.656,0.657 -1.312,1.125 -2.156,1.407c-0.844,0.281 -1.875,0.468 -3.188,0.562c-0.281,0.281 -0.468,0.656 -0.468,0.938c0,0.281 0.187,0.562 0.562,0.75c1.969,-0.094 3.75,-0.188 5.344,-0.282c1.594,-0.093 3.187,-0.093 4.781,-0.093c1.688,0 3.469,0 5.25,0.093c1.781,0.094 3.75,0.188 6,0.282c0.375,-0.282 0.563,-0.563 0.563,-0.938c0,-0.375 -0.188,-0.656 -0.469,-0.844c-2.531,-0.187 -4.219,-0.656 -5.156,-1.5c-1.032,-0.75 -1.5,-1.875 -1.5,-3.281c0,-0.844 0.187,-1.875 0.468,-3c0.282,-1.031 0.657,-2.25 1.125,-3.656l2.719,-8.156l17.625,0c0.188,0.75 0.563,1.781 1.031,3.187c0.469,1.406 0.844,2.906 1.313,4.406c0.469,1.5 0.844,2.907 1.219,4.219c0.281,1.406 0.468,2.344 0.468,2.906c0,0.844 -0.093,1.594 -0.187,2.157c-0.094,0.562 -0.375,1.031 -0.75,1.406c-0.469,0.375 -1.031,0.656 -1.875,0.844c-0.844,0.281 -1.969,0.375 -3.375,0.468c-0.375,0.188 -0.563,0.469 -0.563,0.844c0,0.375 0.188,0.656 0.657,0.844c2.437,-0.094 4.687,-0.094 6.75,-0.188c2.062,-0.093 4.031,-0.093 6,-0.093l2.906,0c0.844,0.093 1.781,0.093 2.625,0.093c0.844,0.094 1.687,0.094 2.625,0.094c0.844,0.094 1.875,0.094 3,0.094c0.469,-0.281 0.656,-0.656 0.656,-1.031c0,-0.375 -0.187,-0.657 -0.469,-0.844c-1.125,-0.094 -2.062,-0.375 -2.812,-0.656c-0.844,-0.282 -1.5,-0.844 -2.156,-1.594c-0.657,-0.656 -1.313,-1.688 -1.875,-2.906c-0.563,-1.219 -1.219,-2.813 -1.875,-4.782l-18.094,-52.5c-0.188,-0.562 -0.563,-0.843 -1.031,-0.843l-0.375,0l-3.938,0.75Zm2.625,2.343l17.813,51.657c0.843,2.625 1.687,4.593 2.531,5.812c0.844,1.219 1.781,2.25 2.906,2.906c-0.656,-0.093 -1.5,-0.281 -2.719,-0.468c-1.218,-0.188 -2.25,-0.282 -3.281,-0.282c-1.125,0 -2.25,0.094 -3.281,0.188c-1.031,0.187 -1.781,0.375 -2.25,0.469c0.469,-0.469 0.844,-1.125 1.031,-1.969c0.188,-0.844 0.281,-1.688 0.281,-2.531c0,-0.75 -0.187,-1.782 -0.468,-3c-0.282,-1.219 -0.657,-2.532 -1.125,-4.032c-0.469,-1.406 -0.938,-3 -1.407,-4.593c-0.562,-1.594 -1.031,-3.094 -1.5,-4.594l-21.281,0c-0.469,1.594 -1.031,3.281 -1.5,4.875c-0.562,1.594 -1.031,3.187 -1.5,4.594c-0.469,1.5 -0.937,2.812 -1.219,3.937c-0.281,1.125 -0.468,1.969 -0.468,2.531c0,1.032 0.093,1.969 0.281,2.813c0.187,0.844 0.844,1.594 1.875,2.156c-0.469,-0.094 -1.219,-0.281 -2.156,-0.375c-0.938,-0.094 -1.782,-0.094 -2.625,-0.094c-0.657,0 -1.407,0 -2.157,0.094c-0.75,0.094 -1.312,0.281 -1.781,0.375c0.938,-0.656 1.781,-1.687 2.438,-3.187c0.656,-1.407 1.593,-3.75 2.625,-7.032l13.593,-40.5c0.282,-0.843 0.563,-1.687 0.844,-2.531c0.281,-0.844 0.469,-1.687 0.75,-2.531c0.188,-0.844 0.375,-1.594 0.563,-2.344c0.187,-0.656 0.375,-1.219 0.468,-1.687l2.719,-0.657Zm-2.531,9l-9.844,28.782l20.438,0l-9.282,-28.875l-1.312,0.093Zm1.406,4.5l7.125,22.313l-14.625,0l7.5,-22.313Z" style="fill:#996d23;fill-rule:nonzero;"/><path d="M473.709,67.317c-0.281,0.281 -0.469,0.75 -0.562,1.406c-0.094,0.75 -0.188,1.5 -0.188,2.344c0,0.656 0.094,1.312 0.188,1.875c0.093,0.656 0.281,1.031 0.562,1.312l21.281,0c0.282,-0.281 0.469,-0.75 0.563,-1.406c0.094,-0.656 0.187,-1.406 0.187,-2.25c0,-1.594 -0.281,-2.625 -0.75,-3.281l-21.281,0Zm0.563,2.437l18.468,0l0,3.375l-18.468,0l0,-3.375Z" style="fill:#996d23;fill-rule:nonzero;"/><path d="M511.584,82.598c0,1.781 -0.094,3.281 -0.375,4.406c-0.281,1.125 -0.656,1.969 -1.219,2.532c-0.562,0.656 -1.312,1.031 -2.343,1.312c-1.032,0.281 -2.25,0.563 -3.75,0.656c-0.469,0.375 -0.657,0.75 -0.657,1.032c0,0.281 0.282,0.656 0.75,0.937c2.532,-0.094 4.782,-0.281 6.75,-0.375c1.969,-0.094 3.938,-0.094 5.907,-0.094c1.031,0 1.968,0 2.812,0.094c0.75,0.094 1.594,0.094 2.438,0.188c0.843,0.093 1.781,0.093 2.906,0.187c1.031,0.094 2.437,0.094 4.219,0.094c2.906,0 5.812,-0.375 8.531,-1.125c2.719,-0.75 5.25,-1.875 7.406,-3.469c2.156,-1.594 3.844,-3.562 5.156,-6c1.313,-2.344 1.969,-5.25 1.969,-8.531c0,-2.344 -0.469,-4.5 -1.406,-6.281c-0.938,-1.782 -2.156,-3.282 -3.75,-4.5c-1.594,-1.219 -3.469,-2.157 -5.438,-2.907c-2.062,-0.656 -4.218,-1.125 -6.468,-1.406c1.781,-0.469 3.562,-1.125 5.156,-1.969c1.594,-0.843 2.906,-1.968 4.125,-3.281c1.219,-1.312 2.156,-2.812 2.812,-4.594c0.657,-1.687 1.032,-3.656 1.032,-5.812c0,-2.344 -0.469,-4.406 -1.313,-6.188c-0.844,-1.781 -2.062,-3.375 -3.656,-4.593c-1.594,-1.219 -3.563,-2.25 -5.813,-2.907c-2.25,-0.656 -4.687,-0.937 -7.406,-0.937l-4.125,0c-1.219,0.094 -2.25,0.094 -3.281,0.187c-1.031,0.094 -1.969,0.094 -2.906,0.094c-0.938,0.094 -1.969,0.094 -3,0.094c-1.969,0 -3.938,0 -5.719,-0.094c-1.781,0 -3.938,0 -6.375,-0.094c-0.469,0.282 -0.656,0.657 -0.656,1.125c0,0.375 0.187,0.657 0.468,0.938c1.407,0.094 2.625,0.281 3.563,0.562c0.937,0.282 1.687,0.844 2.25,1.5c0.469,0.657 0.844,1.594 1.125,2.813c0.187,1.219 0.281,2.719 0.281,4.594l0,41.812Zm9.844,-43.312c0,-1.782 0.375,-3.188 1.125,-4.032c0.656,-0.843 1.875,-1.218 3.562,-1.218c1.594,0 3.188,0.281 4.594,0.843c1.406,0.657 2.625,1.5 3.656,2.532c1.032,1.031 1.875,2.343 2.532,3.937c0.562,1.594 0.843,3.281 0.843,5.156c0,3.938 -0.843,6.844 -2.531,8.813c-1.687,1.969 -3.656,3 -5.812,3.094l-1.407,0.093c-0.468,0.469 -0.656,0.938 -0.656,1.407c0,0.468 0.188,0.937 0.656,1.312l1.032,0.094c3.562,0.375 6.468,1.781 8.812,4.312c2.344,2.532 3.469,6.094 3.469,10.594c0,2.344 -0.281,4.219 -0.844,5.813c-0.656,1.593 -1.406,2.812 -2.437,3.75c-1.032,1.031 -2.344,1.687 -3.844,2.062c-1.5,0.469 -3.094,0.656 -4.875,0.656c-2.813,0 -4.781,-0.562 -6,-1.781c-1.219,-1.219 -1.875,-3 -1.875,-5.344l0,-42.093Zm-8.25,1.5c0,-3.094 -0.281,-5.438 -0.75,-6.844c-0.469,-1.406 -1.406,-2.344 -2.813,-2.813c1.594,0.188 2.813,0.375 3.844,0.469c1.031,0.188 1.969,0.281 3,0.281c1.594,0 3.281,-0.187 5.156,-0.562c1.782,-0.281 4.219,-0.469 7.219,-0.469c2.156,0 4.219,0.281 6.188,0.938c1.968,0.656 3.656,1.593 5.062,2.812c1.406,1.219 2.438,2.625 3.281,4.219c0.844,1.687 1.219,3.562 1.219,5.531c0,3.938 -1.031,7.031 -3,9.281c-1.969,2.344 -4.875,4.032 -8.531,5.063c1.875,-0.938 3.375,-2.438 4.594,-4.406c1.125,-1.969 1.687,-4.5 1.687,-7.688c0,-2.156 -0.375,-4.031 -1.031,-5.812c-0.656,-1.688 -1.594,-3.094 -2.813,-4.313c-1.218,-1.219 -2.718,-2.156 -4.312,-2.812c-1.594,-0.657 -3.375,-0.938 -5.25,-0.938c-2.813,0 -4.875,0.656 -6.094,1.969c-1.219,1.406 -1.875,3.281 -1.875,5.719l0,41.062c0,3 0.844,5.25 2.531,6.656c1.688,1.5 4.407,2.25 8.063,2.25c1.969,0 3.75,-0.281 5.531,-0.75c1.781,-0.468 3.281,-1.312 4.594,-2.437c1.312,-1.125 2.344,-2.625 3.187,-4.406c0.75,-1.782 1.125,-4.032 1.125,-6.563c0,-7.875 -3.375,-13.125 -10.218,-15.656c4.593,0.469 8.437,1.969 11.343,4.5c2.907,2.531 4.313,6 4.313,10.406c0,3 -0.469,5.531 -1.5,7.688c-1.031,2.156 -2.531,3.843 -4.313,5.156c-1.781,1.406 -3.937,2.344 -6.375,2.906c-2.531,0.656 -5.156,0.938 -7.968,0.938c-2.907,0 -5.344,-0.188 -7.407,-0.657c-2.062,-0.468 -3.75,-0.656 -5.156,-0.656c-1.031,0 -2.156,0.094 -3.375,0.281c-1.219,0.188 -2.25,0.375 -3,0.469c1.406,-0.656 2.344,-1.594 3,-2.906c0.563,-1.219 0.844,-3.281 0.844,-6.094l0,-41.812Z" style="fill:#996d23;fill-rule:nonzero;"/><path d="M568.581,70.411c-3.094,0.281 -5.531,1.312 -7.406,3c-1.969,1.781 -2.907,4.312 -2.907,7.593c0,1.969 0.375,3.844 1.032,5.438c0.656,1.594 1.593,3 2.812,4.219c1.125,1.218 2.531,2.062 4.125,2.718c1.594,0.657 3.375,1.032 5.25,1.032c2.625,0 4.875,-0.657 6.844,-1.969c1.875,-1.219 3.562,-3.094 4.969,-5.625c0.093,2.531 0.562,4.406 1.593,5.625c1.032,1.312 2.25,1.969 3.844,1.969c1.406,0 2.813,-0.375 4.219,-1.219c1.406,-0.844 2.906,-1.781 4.5,-2.906l0,-0.375c0,-0.563 -0.188,-0.938 -0.656,-1.219c-0.282,0.187 -0.563,0.375 -1.032,0.469c-0.468,0.187 -0.937,0.281 -1.406,0.281c-0.656,0 -1.219,-0.188 -1.687,-0.656c-0.469,-0.469 -0.657,-1.313 -0.657,-2.719l0,-23.906c0,-1.969 -0.187,-3.75 -0.656,-5.438c-0.469,-1.687 -1.219,-3.187 -2.25,-4.406c-1.031,-1.219 -2.25,-2.25 -3.844,-3c-1.593,-0.656 -3.468,-1.031 -5.625,-1.031c-1.593,0 -3.375,0.281 -5.437,0.75c-2.156,0.468 -4.125,1.125 -6,1.781c-1.875,0.75 -3.469,1.5 -4.781,2.25c-1.313,0.844 -1.969,1.5 -1.969,2.156c0,0.656 0.375,1.125 1.031,1.406c2.156,-0.281 4.313,-0.562 6.469,-0.843c2.062,-0.282 4.406,-0.375 7.125,-0.375c2.625,0 4.5,0.937 5.531,2.718c1.031,1.782 1.594,4.219 1.594,7.313l0,3.656l-14.625,1.313Zm15.844,-4.969c0,-1.594 -0.094,-3.094 -0.375,-4.5c-0.282,-1.406 -0.75,-2.531 -1.407,-3.563c-0.656,-0.937 -1.5,-1.687 -2.531,-2.25c-1.031,-0.562 -2.344,-0.843 -3.937,-0.843c-2.157,0 -4.313,0.093 -6.282,0.281c-1.968,0.281 -3.937,0.562 -5.906,0.844c2.156,-1.032 4.406,-1.969 6.563,-2.813c2.156,-0.75 4.968,-1.125 8.25,-1.125c3.187,0 5.718,1.031 7.5,3.094c1.781,2.156 2.625,5.062 2.625,8.812l0,23.157c0,3.093 1.031,4.687 3,4.687l0.468,0l0.563,-0.094c-0.469,0.469 -1.031,0.938 -1.688,1.313c-0.656,0.469 -1.406,0.656 -2.343,0.656c-1.407,0 -2.438,-0.562 -3.282,-1.781c-0.843,-1.219 -1.218,-3.281 -1.218,-6.281l0,-19.594Zm-1.219,5.812l0,7.125c0,1.5 -0.188,2.907 -0.656,4.125c-0.469,1.313 -1.125,2.438 -1.969,3.375c-0.844,0.938 -1.781,1.688 -2.813,2.157c-1.031,0.562 -2.156,0.843 -3.281,0.843c-2.156,0 -3.75,-0.75 -4.969,-2.343c-1.218,-1.5 -1.875,-3.375 -1.875,-5.532c0,-1.781 0.563,-3.187 1.594,-4.218c1.031,-1.032 2.344,-1.782 4.031,-2.25l9.938,-3.282Zm-11.719,2.344c-4.594,1.406 -6.844,4.219 -6.844,8.438c0,1.125 0.188,2.25 0.657,3.281c0.375,1.125 0.937,2.062 1.781,2.906c0.75,0.844 1.687,1.594 2.812,2.063c1.032,0.468 2.25,0.75 3.657,0.75c1.406,0 2.625,-0.188 3.656,-0.657c1.031,-0.375 1.969,-0.937 2.812,-1.593c-0.656,1.125 -1.687,2.156 -3.093,3c-1.407,0.937 -3.188,1.406 -5.344,1.406c-1.781,0 -3.469,-0.375 -4.875,-1.031c-1.5,-0.657 -2.719,-1.5 -3.75,-2.625c-1.031,-1.032 -1.875,-2.25 -2.438,-3.657c-0.562,-1.406 -0.843,-2.812 -0.843,-4.312c0,-2.531 0.656,-4.594 1.968,-6.094c1.313,-1.406 3.188,-2.344 5.532,-2.625l11.625,-1.5l-7.313,2.25Z" style="fill:#996d23;fill-rule:nonzero;"/><path d="M616.862,49.036c0,-0.563 -0.375,-0.844 -1.031,-0.844c-0.469,0 -1.594,0.094 -3.188,0.281c-1.593,0.188 -3.281,0.469 -5.062,0.75c-1.781,0.281 -3.281,0.656 -4.688,1.125c-1.406,0.469 -2.062,0.938 -2.062,1.406c0,0.375 0.187,0.657 0.562,0.844c0.844,-0.094 1.594,-0.094 2.063,-0.187l1.781,0c1.031,0 1.688,0.468 2.063,1.5c0.375,1.031 0.562,2.156 0.562,3.375l0,21.468c0,5.25 1.125,9.188 3.469,11.719c2.25,2.625 5.437,3.938 9.562,3.938c1.688,0 3.282,-0.282 4.688,-0.75c1.406,-0.469 2.812,-1.125 4.031,-1.969c1.219,-0.844 2.438,-1.781 3.563,-2.813c1.125,-1.031 2.156,-1.968 3.093,-3l0,7.594c0,0.469 0.094,0.844 0.282,0.938c0.093,0.093 0.281,0.187 0.562,0.187l1.125,0c1.594,-1.031 3.469,-1.875 5.438,-2.531c1.968,-0.563 4.406,-0.844 7.406,-0.844c0.281,-0.094 0.469,-0.469 0.469,-0.937c0,-0.375 -0.094,-0.657 -0.375,-0.938c-1.782,-0.094 -3.188,-0.562 -4.219,-1.406c-1.031,-0.844 -1.594,-2.344 -1.594,-4.5l0,-34.313c0,-0.656 -0.281,-0.937 -0.844,-0.937c-0.468,0 -1.5,0.094 -3.093,0.187c-1.688,0.188 -3.375,0.469 -5.157,0.75c-1.781,0.282 -3.375,0.657 -4.781,1.125c-1.406,0.469 -2.156,0.938 -2.156,1.5c0,0.375 0.187,0.657 0.656,0.844c0.844,-0.094 1.594,-0.094 2.156,-0.187l1.5,0c1.032,0 1.782,0.468 2.157,1.5c0.281,1.031 0.468,2.156 0.468,3.375l0,25.968c-1.687,1.032 -3.468,2.063 -5.25,3c-1.781,0.938 -3.75,1.407 -5.812,1.407c-3.281,0 -5.438,-1.032 -6.563,-3.094c-1.218,-2.063 -1.781,-4.781 -1.781,-8.063l0,-27.468Zm20.719,8.25c0,-1.125 -0.094,-2.25 -0.375,-3.375c-0.281,-1.125 -0.844,-1.875 -1.688,-2.157c1.219,-0.281 2.532,-0.468 3.75,-0.656c1.219,-0.094 2.344,-0.187 3.375,-0.187l0,32.531c0,2.156 0.375,3.656 1.125,4.687c0.657,1.032 1.594,1.782 2.719,2.25c-1.406,0.094 -2.906,0.375 -4.5,0.938c-1.594,0.562 -2.906,1.219 -4.125,2.062l-0.281,0l0,-36.093Zm-28.406,0c0,-1.969 -0.188,-3.282 -0.563,-4.125c-0.469,-0.844 -0.937,-1.313 -1.594,-1.407c1.313,-0.281 2.532,-0.562 3.657,-0.656c1.031,-0.094 2.25,-0.187 3.468,-0.187l0,27.187c0,1.781 0.188,3.375 0.563,4.875c0.375,1.5 0.937,2.813 1.781,3.938c0.844,1.125 1.875,1.968 3.188,2.625c1.312,0.656 2.906,0.937 4.781,0.937c1.219,0 2.531,-0.281 3.937,-0.75c1.313,-0.469 2.532,-1.031 3.563,-1.687c-0.563,0.562 -1.219,1.125 -1.875,1.687c-0.75,0.656 -1.594,1.219 -2.531,1.688c-0.938,0.562 -1.969,1.031 -3,1.312c-1.125,0.375 -2.344,0.563 -3.657,0.563c-3.656,0 -6.562,-1.219 -8.625,-3.657c-2.062,-2.343 -3.093,-6 -3.093,-10.968l0,-21.375Z" style="fill:#996d23;fill-rule:nonzero;"/><path d="M668.897,49.036c0,-0.563 -0.375,-0.844 -1.032,-0.844c-0.468,0 -1.593,0.094 -3.187,0.281c-1.594,0.188 -3.281,0.469 -5.063,0.75c-1.781,0.281 -3.281,0.656 -4.687,1.125c-1.406,0.469 -2.063,0.938 -2.063,1.406c0,0.375 0.188,0.657 0.563,0.844c0.844,-0.094 1.594,-0.094 2.062,-0.187l1.782,0c1.031,0 1.687,0.468 2.062,1.5c0.375,1.031 0.563,2.156 0.563,3.375l0,21.468c0,5.25 1.125,9.188 3.468,11.719c2.25,2.625 5.438,3.938 9.563,3.938c1.687,0 3.281,-0.282 4.687,-0.75c1.407,-0.469 2.813,-1.125 4.032,-1.969c1.218,-0.844 2.437,-1.781 3.562,-2.813c1.125,-1.031 2.156,-1.968 3.094,-3l0,7.594c0,0.469 0.094,0.844 0.281,0.938c0.094,0.093 0.281,0.187 0.563,0.187l1.125,0c1.593,-1.031 3.468,-1.875 5.437,-2.531c1.969,-0.563 4.406,-0.844 7.406,-0.844c0.282,-0.094 0.469,-0.469 0.469,-0.937c0,-0.375 -0.094,-0.657 -0.375,-0.938c-1.781,-0.094 -3.187,-0.562 -4.219,-1.406c-1.031,-0.844 -1.593,-2.344 -1.593,-4.5l0,-34.313c0,-0.656 -0.282,-0.937 -0.844,-0.937c-0.469,0 -1.5,0.094 -3.094,0.187c-1.687,0.188 -3.375,0.469 -5.156,0.75c-1.781,0.282 -3.375,0.657 -4.781,1.125c-1.407,0.469 -2.157,0.938 -2.157,1.5c0,0.375 0.188,0.657 0.657,0.844c0.843,-0.094 1.593,-0.094 2.156,-0.187l1.5,0c1.031,0 1.781,0.468 2.156,1.5c0.281,1.031 0.469,2.156 0.469,3.375l0,25.968c-1.688,1.032 -3.469,2.063 -5.25,3c-1.781,0.938 -3.75,1.407 -5.813,1.407c-3.281,0 -5.437,-1.032 -6.562,-3.094c-1.219,-2.063 -1.781,-4.781 -1.781,-8.063l0,-27.468Zm20.718,8.25c0,-1.125 -0.093,-2.25 -0.375,-3.375c-0.281,-1.125 -0.843,-1.875 -1.687,-2.157c1.219,-0.281 2.531,-0.468 3.75,-0.656c1.219,-0.094 2.344,-0.187 3.375,-0.187l0,32.531c0,2.156 0.375,3.656 1.125,4.687c0.656,1.032 1.594,1.782 2.719,2.25c-1.407,0.094 -2.907,0.375 -4.5,0.938c-1.594,0.562 -2.907,1.219 -4.125,2.062l-0.282,0l0,-36.093Zm-28.406,0c0,-1.969 -0.187,-3.282 -0.562,-4.125c-0.469,-0.844 -0.938,-1.313 -1.594,-1.407c1.312,-0.281 2.531,-0.562 3.656,-0.656c1.031,-0.094 2.25,-0.187 3.469,-0.187l0,27.187c0,1.781 0.187,3.375 0.562,4.875c0.375,1.5 0.938,2.813 1.782,3.938c0.843,1.125 1.875,1.968 3.187,2.625c1.313,0.656 2.906,0.937 4.781,0.937c1.219,0 2.532,-0.281 3.938,-0.75c1.312,-0.469 2.531,-1.031 3.562,-1.687c-0.562,0.562 -1.218,1.125 -1.875,1.687c-0.75,0.656 -1.593,1.219 -2.531,1.688c-0.937,0.562 -1.969,1.031 -3,1.312c-1.125,0.375 -2.344,0.563 -3.656,0.563c-3.656,0 -6.563,-1.219 -8.625,-3.657c-2.063,-2.343 -3.094,-6 -3.094,-10.968l0,-21.375Z" style="fill:#996d23;fill-rule:nonzero;"/><path d="M723.175,49.411c0,-0.282 -0.094,-0.469 -0.188,-0.75c-0.187,-0.188 -0.469,-0.282 -0.75,-0.282c-0.656,0 -1.875,0.094 -3.469,0.282c-1.593,0.187 -3.281,0.468 -4.968,0.75c-1.782,0.281 -3.282,0.656 -4.594,1.125c-1.313,0.468 -1.969,0.937 -1.969,1.406c0,0.375 0.188,0.656 0.563,0.844c0.843,-0.094 1.593,-0.094 2.156,-0.188l1.594,0c1.218,0 1.968,0.469 2.343,1.5c0.375,1.031 0.563,2.063 0.563,3.281l0,27.563c0,2.812 -0.563,4.594 -1.594,5.437c-1.125,0.844 -3,1.407 -5.531,1.5c-0.281,0.188 -0.469,0.469 -0.469,0.75c0,0.375 0.188,0.657 0.563,0.844c2.156,-0.094 4.031,-0.094 5.718,-0.187c1.688,-0.094 3.375,-0.094 5.157,-0.094c1.781,0 3.562,0 5.343,0.094c1.688,0.093 3.657,0.093 5.813,0.187c0.281,-0.187 0.469,-0.469 0.469,-0.75c0,-0.281 -0.188,-0.562 -0.469,-0.75c-2.156,-0.094 -3.656,-0.656 -4.688,-1.594c-1.031,-0.937 -1.593,-2.718 -1.593,-5.25l0,-27.937c1.593,-0.281 3.281,-0.469 4.875,-0.563c1.593,-0.093 3.468,-0.187 5.531,-0.187c3.562,0 6,0.937 7.219,2.719c1.218,1.875 1.875,4.5 1.875,7.875l0,17.437c0,1.594 -0.094,2.813 -0.375,3.75c-0.282,0.938 -0.75,1.688 -1.313,2.156c-0.562,0.563 -1.312,0.938 -2.156,1.125c-0.938,0.188 -1.969,0.282 -3.188,0.375c-0.281,0.282 -0.375,0.469 -0.375,0.75c0,0.094 0.188,0.375 0.469,0.844c1.125,0 2.063,0 2.906,-0.094c0.844,0 1.594,0 2.344,-0.093c0.656,0 1.406,0 2.156,-0.094l2.532,0c1.593,0 3.468,0 5.625,0.094c2.156,0.093 4.218,0.093 6.187,0.187c0.281,-0.187 0.469,-0.469 0.469,-0.75c0,-0.281 -0.094,-0.469 -0.375,-0.75c-2.156,-0.187 -3.75,-0.75 -4.781,-1.594c-1.032,-0.843 -1.594,-2.625 -1.594,-5.343l0,-21.469c0,-2.063 -0.188,-4.031 -0.563,-5.906c-0.375,-1.782 -1.031,-3.375 -1.875,-4.782c-0.937,-1.406 -2.156,-2.437 -3.656,-3.281c-1.594,-0.844 -3.469,-1.219 -5.812,-1.219c-2.719,0 -5.344,0.469 -7.875,1.5c-2.625,1.032 -5.344,2.344 -8.25,4.125l0,-4.593Zm20.812,17.625c0,-4.219 -0.75,-7.219 -2.344,-9.094c-1.593,-1.781 -4.406,-2.719 -8.343,-2.719c-1.5,0 -3.188,0.094 -4.969,0.281c-1.781,0.282 -3.469,0.469 -4.875,0.563c2.625,-1.031 5.156,-2.063 7.594,-3c2.437,-0.938 4.968,-1.406 7.5,-1.406c2.906,0 5.25,1.031 7.125,3c1.875,1.968 2.812,5.062 2.812,9.187l0,21.188c0,2.156 0.188,3.75 0.469,4.781c0.281,1.031 0.844,1.875 1.687,2.344c-0.75,-0.188 -1.5,-0.375 -2.25,-0.657c-0.75,-0.187 -1.593,-0.281 -2.437,-0.281c-1.219,0 -2.25,0.094 -2.906,0.375c-0.657,0.281 -1.5,0.469 -2.438,0.563c0.656,-0.375 1.125,-0.75 1.594,-1.219c0.469,-0.375 0.844,-0.938 1.125,-1.594c0.281,-0.656 0.469,-1.406 0.562,-2.437c0.094,-0.938 0.094,-2.157 0.094,-3.563l0,-16.312Zm-28.219,-9.282c0,-1.593 -0.093,-2.906 -0.375,-3.937c-0.281,-0.938 -0.843,-1.688 -1.5,-2.156c1.125,-0.188 2.157,-0.375 3,-0.469c0.844,-0.094 2.063,-0.094 3.469,-0.094l0,34.031c0,2.157 0.188,3.75 0.563,4.688c0.375,1.031 1.031,1.687 1.875,2.062c-0.844,-0.093 -1.594,-0.281 -2.344,-0.468c-0.844,-0.094 -1.688,-0.188 -2.625,-0.188c-1.031,0 -1.875,0.094 -2.625,0.281c-0.75,0.282 -1.594,0.469 -2.531,0.563c1.031,-0.469 1.875,-1.313 2.343,-2.344c0.469,-1.031 0.75,-2.719 0.75,-5.156l0,-26.813Z" style="fill:#996d23;fill-rule:nonzero;"/><path d="M778.203,38.911c-0.75,-0.282 -1.594,-0.375 -2.531,-0.375c-1.032,0 -1.782,0.093 -2.344,0.375c-0.75,3 -1.875,5.437 -3.469,7.312c-1.594,1.969 -4.031,3 -7.312,3.281c-0.282,0.282 -0.469,0.657 -0.563,1.032c-0.094,0.468 -0.187,0.937 -0.187,1.406c0,0.469 0.093,0.937 0.187,1.406c0.094,0.469 0.375,0.844 0.656,1.125l6,0l0,28.781c0,7.407 3.094,11.157 9.282,11.157c2.343,0 4.593,-0.375 6.562,-1.219c1.969,-0.75 3.938,-1.781 5.813,-3c0.093,-0.375 0.187,-0.656 0.187,-0.938c0,-0.656 -0.281,-1.125 -0.937,-1.5c-1.219,0.188 -2.344,0.375 -3.469,0.657c-1.219,0.281 -2.438,0.375 -3.656,0.375c-1.219,0 -2.157,-0.469 -3,-1.407c-0.844,-0.843 -1.219,-2.437 -1.219,-4.593l0,-28.313l10.594,0c0.281,-0.281 0.562,-0.75 0.843,-1.312c0.188,-0.563 0.282,-1.125 0.282,-1.782c0,-0.937 -0.282,-1.593 -0.75,-2.062l-10.969,0l0,-10.406Zm-4.406,3c0.093,0 0.281,0 0.375,-0.094l0.656,0c0.094,0.094 0.281,0.094 0.375,0.094l0,9.562l11.625,0c0,0.094 0,0.281 0.094,0.375l0,0.375c0,0.469 -0.094,0.75 -0.188,1.031l-11.531,0l0,30.282c0,1.406 0.187,2.625 0.656,3.562c0.375,0.938 0.938,1.688 1.594,2.25c0.656,0.563 1.312,0.938 2.156,1.125c0.75,0.281 1.5,0.375 2.25,0.375c1.125,0 2.156,-0.094 3.188,-0.281c0.937,-0.094 1.875,-0.375 2.718,-0.656l0,0.187c-1.125,0.656 -2.531,1.406 -4.125,2.063c-1.593,0.656 -3.562,1.031 -5.718,1.031c-2.625,0 -4.594,-0.844 -6,-2.438c-1.407,-1.593 -2.063,-4.031 -2.063,-7.5l0,-30l-6.562,0c-0.094,-0.093 -0.094,-0.281 -0.094,-0.75c0,-0.468 0,-0.75 0.094,-0.843c2.718,-0.282 4.875,-1.125 6.468,-2.344c1.5,-1.219 2.719,-3.375 3.75,-6.469l0.282,-0.937Z" style="fill:#996d23;fill-rule:nonzero;"/><path d="M828.547,69.286c1.125,0 2.062,-0.188 2.718,-0.657c0.657,-0.375 1.032,-1.406 1.032,-3c0,-2.437 -0.282,-4.687 -0.844,-6.843c-0.656,-2.157 -1.594,-3.938 -2.813,-5.532c-1.312,-1.593 -2.906,-2.812 -4.875,-3.656c-1.968,-0.844 -4.406,-1.312 -7.218,-1.312c-3.469,0 -6.657,0.656 -9.469,1.968c-2.906,1.313 -5.344,3.094 -7.313,5.25c-1.968,2.25 -3.562,4.875 -4.593,7.782c-1.125,3 -1.688,6.187 -1.688,9.562c0,3 0.469,5.813 1.5,8.438c0.938,2.718 2.344,4.968 4.125,6.937c1.781,1.969 3.938,3.469 6.469,4.594c2.531,1.125 5.344,1.687 8.437,1.687c1.875,0 3.657,-0.281 5.25,-0.75c1.594,-0.468 3.094,-1.031 4.5,-1.781c1.407,-0.656 2.625,-1.5 3.844,-2.437c1.125,-0.844 2.25,-1.782 3.281,-2.719c0,-0.656 -0.187,-1.313 -0.562,-1.781c-0.375,-0.469 -0.844,-0.844 -1.313,-0.938c-1.219,0.656 -2.25,1.219 -3.187,1.688c-0.938,0.468 -1.875,0.937 -2.719,1.218c-0.937,0.375 -1.875,0.657 -2.812,0.844c-1.032,0.188 -2.063,0.281 -3.282,0.281c-2.531,0 -4.781,-0.562 -6.562,-1.593c-1.781,-1.032 -3.281,-2.344 -4.406,-4.125c-1.219,-1.688 -2.063,-3.657 -2.532,-5.907c-0.562,-2.156 -0.843,-4.5 -0.937,-6.937l25.969,-0.281Zm-25.875,-2.719c0.281,-1.594 0.656,-3.094 1.312,-4.594c0.656,-1.5 1.406,-2.812 2.438,-4.031c0.937,-1.219 2.062,-2.156 3.375,-2.906c1.218,-0.75 2.718,-1.125 4.312,-1.125c1.5,0 2.813,0.281 3.938,0.75c1.125,0.562 2.062,1.312 2.812,2.25c0.75,0.937 1.313,1.968 1.781,3.187c0.375,1.219 0.563,2.531 0.563,3.844c0,0.469 -0.094,0.75 -0.281,0.844c-0.282,0.187 -0.469,0.281 -0.75,0.281l-19.5,1.5Zm5.343,1.312l13.313,-1.312c2.062,-0.188 3.094,-1.031 3.094,-2.438c0,-1.593 -0.188,-3 -0.563,-4.406c-0.469,-1.406 -1.125,-2.625 -1.969,-3.656c-0.844,-1.031 -1.968,-1.781 -3.281,-2.438c-1.312,-0.656 -2.906,-0.937 -4.781,-0.937c-2.157,0 -4.125,0.469 -5.906,1.406c-1.782,1.031 -3.282,2.25 -4.5,3.844c-1.219,1.594 -2.25,3.469 -2.907,5.531c-0.656,2.156 -1.031,4.313 -1.031,6.563c0,2.718 0.281,5.25 0.938,7.781c0.656,2.531 1.593,4.687 3,6.562c1.406,1.969 3.187,3.469 5.343,4.594c2.157,1.219 4.688,1.781 7.782,1.781c1.406,0 2.812,-0.187 4.406,-0.562c1.5,-0.281 2.812,-0.656 3.844,-1.031c-1.219,1.031 -2.719,1.968 -4.594,2.718c-1.969,0.844 -4.032,1.219 -6.188,1.219c-2.906,0 -5.531,-0.562 -7.875,-1.594c-2.343,-1.031 -4.406,-2.437 -6.093,-4.218c-1.688,-1.782 -3,-3.938 -3.844,-6.469c-0.938,-2.438 -1.406,-5.063 -1.406,-7.969c0,-2.906 0.468,-5.719 1.5,-8.437c0.937,-2.719 2.25,-5.063 4.031,-7.125c1.687,-2.063 3.75,-3.75 6.094,-4.969c2.343,-1.219 4.968,-1.875 7.875,-1.875c2.718,0 4.968,0.469 6.843,1.312c1.782,0.938 3.282,2.157 4.406,3.563c1.126,1.5 1.969,3.094 2.438,4.875c0.469,1.781 0.75,3.562 0.75,5.25c0,1.031 -0.187,1.781 -0.562,2.156c-0.376,0.375 -1.032,0.563 -2.063,0.563l-18.094,-0.282Z" style="fill:#996d23;fill-rule:nonzero;"/><path d="M853.109,49.223c0,-0.187 -0.094,-0.375 -0.187,-0.562c-0.188,-0.188 -0.469,-0.282 -0.75,-0.282c-0.657,0 -1.875,0.094 -3.469,0.282c-1.594,0.187 -3.281,0.468 -4.969,0.75c-1.688,0.281 -3.187,0.656 -4.5,1.125c-1.312,0.468 -1.969,0.937 -1.969,1.406c0,0.375 0.188,0.656 0.563,0.844c0.844,-0.094 1.5,-0.094 2.156,-0.188l1.594,0c1.219,0 1.969,0.469 2.344,1.5c0.281,1.031 0.468,2.063 0.468,3.281l0,27.563c0,2.812 -0.562,4.594 -1.593,5.437c-1.125,0.844 -2.907,1.407 -5.438,1.5c-0.281,0.188 -0.469,0.469 -0.469,0.75c0,0.375 0.188,0.657 0.469,0.844c2.156,-0.094 4.031,-0.094 5.719,-0.187c1.687,-0.094 3.375,-0.094 5.156,-0.094c1.781,0 3.938,0 6.375,0.094c2.438,0.093 4.688,0.093 6.844,0.187c0.375,-0.187 0.562,-0.469 0.562,-0.844c0,-0.281 -0.093,-0.562 -0.375,-0.75c-3.094,-0.187 -5.25,-0.75 -6.562,-1.687c-1.313,-0.938 -1.969,-2.719 -1.969,-5.25l0,-26.719c1.406,-0.281 2.906,-0.562 4.406,-0.75c1.407,-0.094 2.719,-0.187 3.75,-0.187c0.938,0 1.781,0.093 2.625,0.187c0.844,0.094 1.594,0.188 2.344,0.188c0.75,0 1.313,-0.282 1.781,-0.75c0.375,-0.469 0.657,-1.032 0.938,-1.688c0.281,-0.656 0.375,-1.406 0.469,-2.25c0.093,-0.75 0.093,-1.406 0.093,-1.969c0,-0.937 -0.375,-1.687 -1.218,-2.156c-0.844,-0.469 -1.875,-0.75 -3.188,-0.75l-0.375,0c-0.937,0 -1.781,0.094 -2.625,0.375c-0.844,0.281 -1.687,0.75 -2.531,1.406c-0.844,0.657 -1.781,1.407 -2.813,2.344c-1.031,0.938 -2.25,2.063 -3.656,3.375l0,-6.375Zm5.531,4.031c1.032,-0.843 1.969,-1.312 2.813,-1.593c0.75,-0.282 1.5,-0.375 2.156,-0.375c0.656,0 1.313,0.093 1.875,0.187c0.469,0.094 0.75,0.563 0.75,1.219l0,0.937c-0.094,0.375 -0.187,0.75 -0.281,1.125c-0.094,0.375 -0.281,0.657 -0.469,0.938c-0.281,0.281 -0.562,0.469 -0.937,0.469c-0.469,0 -0.844,0 -1.313,-0.094c-0.469,-0.094 -1.125,-0.094 -1.969,-0.094c-0.656,0 -1.781,0.094 -3.375,0.188c-1.593,0.187 -3.093,0.468 -4.5,0.937l5.25,-3.844Zm-12.937,4.5c0,-1.593 -0.094,-2.812 -0.375,-3.843c-0.281,-0.938 -0.844,-1.688 -1.594,-2.157c0.844,-0.093 1.969,-0.281 3.375,-0.468c1.313,-0.094 2.438,-0.188 3.281,-0.188l0,33.469c0,2.25 0.188,3.844 0.657,4.875c0.468,1.031 1.125,1.781 2.062,2.25l-0.375,-0.094c-0.656,-0.094 -1.406,-0.281 -2.25,-0.375c-0.937,-0.094 -1.781,-0.094 -2.531,-0.094c-0.75,0 -1.594,0.094 -2.531,0.282c-1.032,0.187 -1.782,0.375 -2.438,0.468c1.031,-0.468 1.688,-1.218 2.156,-2.25c0.375,-1.031 0.563,-2.718 0.563,-5.062l0,-26.813Z" style="fill:#996d23;fill-rule:nonzero;"/><path d="M887.418,49.411c0,-0.282 -0.093,-0.469 -0.187,-0.75c-0.188,-0.188 -0.469,-0.282 -0.75,-0.282c-0.656,0 -1.875,0.094 -3.469,0.282c-1.594,0.187 -3.281,0.468 -4.969,0.75c-1.781,0.281 -3.281,0.656 -4.593,1.125c-1.313,0.468 -1.969,0.937 -1.969,1.406c0,0.375 0.187,0.656 0.562,0.844c0.844,-0.094 1.594,-0.094 2.157,-0.188l1.593,0c1.219,0 1.969,0.469 2.344,1.5c0.375,1.031 0.563,2.063 0.563,3.281l0,27.563c0,2.812 -0.563,4.594 -1.594,5.437c-1.125,0.844 -3,1.407 -5.531,1.5c-0.282,0.188 -0.469,0.469 -0.469,0.75c0,0.375 0.187,0.657 0.562,0.844c2.157,-0.094 4.032,-0.094 5.719,-0.187c1.688,-0.094 3.375,-0.094 5.156,-0.094c1.782,0 3.563,0 5.344,0.094c1.688,0.093 3.656,0.093 5.813,0.187c0.281,-0.187 0.468,-0.469 0.468,-0.75c0,-0.281 -0.187,-0.562 -0.468,-0.75c-2.157,-0.094 -3.657,-0.656 -4.688,-1.594c-1.031,-0.937 -1.594,-2.718 -1.594,-5.25l0,-27.937c1.594,-0.281 3.282,-0.469 4.875,-0.563c1.594,-0.093 3.469,-0.187 5.532,-0.187c3.562,0 6,0.937 7.218,2.719c1.219,1.875 1.875,4.5 1.875,7.875l0,17.437c0,1.594 -0.093,2.813 -0.375,3.75c-0.281,0.938 -0.75,1.688 -1.312,2.156c-0.563,0.563 -1.313,0.938 -2.156,1.125c-0.938,0.188 -1.969,0.282 -3.188,0.375c-0.281,0.282 -0.375,0.469 -0.375,0.75c0,0.094 0.188,0.375 0.469,0.844c1.125,0 2.062,0 2.906,-0.094c0.844,0 1.594,0 2.344,-0.093c0.656,0 1.406,0 2.156,-0.094l2.531,0c1.594,0 3.469,0 5.625,0.094c2.157,0.093 4.219,0.093 6.188,0.187c0.281,-0.187 0.469,-0.469 0.469,-0.75c0,-0.281 -0.094,-0.469 -0.375,-0.75c-2.157,-0.187 -3.75,-0.75 -4.782,-1.594c-1.031,-0.843 -1.593,-2.625 -1.593,-5.343l0,-21.469c0,-2.063 -0.188,-4.031 -0.563,-5.906c-0.375,-1.782 -1.031,-3.375 -1.875,-4.782c-0.937,-1.406 -2.156,-2.437 -3.656,-3.281c-1.594,-0.844 -3.469,-1.219 -5.813,-1.219c-2.718,0 -5.343,0.469 -7.875,1.5c-2.625,1.032 -5.343,2.344 -8.25,4.125l0,-4.593Zm20.813,17.625c0,-4.219 -0.75,-7.219 -2.344,-9.094c-1.594,-1.781 -4.406,-2.719 -8.344,-2.719c-1.5,0 -3.187,0.094 -4.968,0.281c-1.782,0.282 -3.469,0.469 -4.875,0.563c2.625,-1.031 5.156,-2.063 7.593,-3c2.438,-0.938 4.969,-1.406 7.5,-1.406c2.907,0 5.25,1.031 7.125,3c1.875,1.968 2.813,5.062 2.813,9.187l0,21.188c0,2.156 0.187,3.75 0.469,4.781c0.281,1.031 0.843,1.875 1.687,2.344c-0.75,-0.188 -1.5,-0.375 -2.25,-0.657c-0.75,-0.187 -1.594,-0.281 -2.437,-0.281c-1.219,0 -2.25,0.094 -2.907,0.375c-0.656,0.281 -1.5,0.469 -2.437,0.563c0.656,-0.375 1.125,-0.75 1.594,-1.219c0.468,-0.375 0.843,-0.938 1.125,-1.594c0.281,-0.656 0.468,-1.406 0.562,-2.437c0.094,-0.938 0.094,-2.157 0.094,-3.563l0,-16.312Zm-28.219,-9.282c0,-1.593 -0.094,-2.906 -0.375,-3.937c-0.281,-0.938 -0.844,-1.688 -1.5,-2.156c1.125,-0.188 2.156,-0.375 3,-0.469c0.844,-0.094 2.063,-0.094 3.469,-0.094l0,34.031c0,2.157 0.187,3.75 0.562,4.688c0.375,1.031 1.032,1.687 1.875,2.062c-0.843,-0.093 -1.593,-0.281 -2.343,-0.468c-0.844,-0.094 -1.688,-0.188 -2.625,-0.188c-1.032,0 -1.875,0.094 -2.625,0.281c-0.75,0.282 -1.594,0.469 -2.532,0.563c1.032,-0.469 1.875,-1.313 2.344,-2.344c0.469,-1.031 0.75,-2.719 0.75,-5.156l0,-26.813Z" style="fill:#996d23;fill-rule:nonzero;"/><path d="M961.387,69.286c1.125,0 2.063,-0.188 2.719,-0.657c0.656,-0.375 1.031,-1.406 1.031,-3c0,-2.437 -0.281,-4.687 -0.844,-6.843c-0.656,-2.157 -1.593,-3.938 -2.812,-5.532c-1.313,-1.593 -2.906,-2.812 -4.875,-3.656c-1.969,-0.844 -4.406,-1.312 -7.219,-1.312c-3.469,0 -6.656,0.656 -9.469,1.968c-2.906,1.313 -5.343,3.094 -7.312,5.25c-1.969,2.25 -3.563,4.875 -4.594,7.782c-1.125,3 -1.687,6.187 -1.687,9.562c0,3 0.468,5.813 1.5,8.438c0.937,2.718 2.343,4.968 4.125,6.937c1.781,1.969 3.937,3.469 6.468,4.594c2.532,1.125 5.344,1.687 8.438,1.687c1.875,0 3.656,-0.281 5.25,-0.75c1.594,-0.468 3.094,-1.031 4.5,-1.781c1.406,-0.656 2.625,-1.5 3.844,-2.437c1.125,-0.844 2.25,-1.782 3.281,-2.719c0,-0.656 -0.188,-1.313 -0.563,-1.781c-0.375,-0.469 -0.843,-0.844 -1.312,-0.938c-1.219,0.656 -2.25,1.219 -3.188,1.688c-0.937,0.468 -1.875,0.937 -2.718,1.218c-0.938,0.375 -1.875,0.657 -2.813,0.844c-1.031,0.188 -2.062,0.281 -3.281,0.281c-2.531,0 -4.781,-0.562 -6.563,-1.593c-1.781,-1.032 -3.281,-2.344 -4.406,-4.125c-1.219,-1.688 -2.062,-3.657 -2.531,-5.907c-0.563,-2.156 -0.844,-4.5 -0.938,-6.937l25.969,-0.281Zm-25.875,-2.719c0.281,-1.594 0.656,-3.094 1.313,-4.594c0.656,-1.5 1.406,-2.812 2.437,-4.031c0.938,-1.219 2.063,-2.156 3.375,-2.906c1.219,-0.75 2.719,-1.125 4.313,-1.125c1.5,0 2.812,0.281 3.937,0.75c1.125,0.562 2.063,1.312 2.813,2.25c0.75,0.937 1.312,1.968 1.781,3.187c0.375,1.219 0.562,2.531 0.562,3.844c0,0.469 -0.093,0.75 -0.281,0.844c-0.281,0.187 -0.469,0.281 -0.75,0.281l-19.5,1.5Zm5.344,1.312l13.312,-1.312c2.063,-0.188 3.094,-1.031 3.094,-2.438c0,-1.593 -0.187,-3 -0.562,-4.406c-0.469,-1.406 -1.125,-2.625 -1.969,-3.656c-0.844,-1.031 -1.969,-1.781 -3.281,-2.438c-1.313,-0.656 -2.907,-0.937 -4.782,-0.937c-2.156,0 -4.125,0.469 -5.906,1.406c-1.781,1.031 -3.281,2.25 -4.5,3.844c-1.219,1.594 -2.25,3.469 -2.906,5.531c-0.656,2.156 -1.031,4.313 -1.031,6.563c0,2.718 0.281,5.25 0.937,7.781c0.656,2.531 1.594,4.687 3,6.562c1.406,1.969 3.188,3.469 5.344,4.594c2.156,1.219 4.687,1.781 7.781,1.781c1.406,0 2.813,-0.187 4.406,-0.562c1.5,-0.281 2.813,-0.656 3.844,-1.031c-1.219,1.031 -2.719,1.968 -4.594,2.718c-1.968,0.844 -4.031,1.219 -6.187,1.219c-2.906,0 -5.531,-0.562 -7.875,-1.594c-2.344,-1.031 -4.406,-2.437 -6.094,-4.218c-1.687,-1.782 -3,-3.938 -3.844,-6.469c-0.937,-2.438 -1.406,-5.063 -1.406,-7.969c0,-2.906 0.469,-5.719 1.5,-8.437c0.938,-2.719 2.25,-5.063 4.031,-7.125c1.688,-2.063 3.75,-3.75 6.094,-4.969c2.344,-1.219 4.969,-1.875 7.875,-1.875c2.719,0 4.969,0.469 6.844,1.312c1.781,0.938 3.281,2.157 4.406,3.563c1.125,1.5 1.969,3.094 2.438,4.875c0.468,1.781 0.75,3.562 0.75,5.25c0,1.031 -0.188,1.781 -0.563,2.156c-0.375,0.375 -1.031,0.563 -2.062,0.563l-18.094,-0.282Z" style="fill:#996d23;fill-rule:nonzero;"/><path d="M985.481,27.192c0,-0.188 -0.094,-0.375 -0.188,-0.563c-0.187,-0.187 -0.468,-0.281 -0.75,-0.281c-0.656,0 -1.875,0.094 -3.468,0.281c-1.688,0.188 -3.375,0.469 -5.063,0.75c-1.687,0.375 -3.187,0.75 -4.5,1.219c-1.312,0.469 -1.969,0.938 -1.969,1.406c0,0.282 0.188,0.563 0.563,0.75c0.844,-0.093 1.594,-0.093 2.156,-0.187l1.594,0c1.219,0 1.969,0.469 2.344,1.5c0.375,1.031 0.562,2.062 0.562,3.281l0,49.594c0,2.812 -0.562,4.594 -1.594,5.437c-1.125,0.844 -3,1.407 -5.531,1.5c-0.281,0.188 -0.469,0.469 -0.469,0.75c0,0.375 0.188,0.657 0.563,0.844c2.156,-0.094 4.031,-0.094 5.719,-0.187c1.687,-0.094 3.375,-0.094 5.156,-0.094c1.781,0 3.562,0 5.344,0.094c1.687,0.093 3.656,0.093 5.812,0.187c0.281,-0.187 0.469,-0.469 0.469,-0.75c0,-0.281 -0.188,-0.562 -0.469,-0.75c-2.156,-0.094 -3.656,-0.656 -4.687,-1.594c-1.032,-0.937 -1.594,-2.718 -1.594,-5.25l0,-27.937c1.594,-0.281 3.281,-0.563 4.875,-0.656c1.594,-0.094 3.469,-0.188 5.531,-0.188c3.563,0 6,0.938 7.219,2.719c1.219,1.875 1.875,4.5 1.875,7.969l0,17.437c0,1.594 -0.094,2.813 -0.375,3.75c-0.281,0.938 -0.75,1.688 -1.313,2.156c-0.562,0.563 -1.312,0.938 -2.156,1.125c-0.937,0.188 -1.969,0.282 -3.187,0.375c-0.282,0.282 -0.375,0.469 -0.375,0.75c0,0.094 0.187,0.375 0.468,0.844c1.125,0 2.063,0 2.907,-0.094c0.843,0 1.593,0 2.343,-0.093c0.657,0 1.407,0 2.157,-0.094l2.531,0c1.594,0 3.469,0 5.625,0.094c2.156,0.093 4.219,0.093 6.187,0.187c0.282,-0.187 0.469,-0.469 0.469,-0.75c0,-0.281 -0.094,-0.469 -0.375,-0.75c-2.156,-0.187 -3.75,-0.75 -4.781,-1.594c-1.031,-0.843 -1.594,-2.625 -1.594,-5.343l0,-21.469c0,-2.063 -0.187,-4.031 -0.562,-5.906c-0.375,-1.875 -1.032,-3.469 -1.875,-4.875c-0.938,-1.407 -2.157,-2.438 -3.657,-3.282c-1.593,-0.843 -3.468,-1.218 -5.812,-1.218c-2.719,0 -5.344,0.468 -7.875,1.5c-2.625,1.031 -5.344,2.437 -8.25,4.218l0,-26.812Zm20.812,39.844c0,-4.219 -0.75,-7.219 -2.343,-9.094c-1.594,-1.875 -4.407,-2.813 -8.344,-2.813c-1.5,0 -3.188,0.094 -4.969,0.282c-1.781,0.281 -3.469,0.468 -4.875,0.562c2.625,-1.031 5.156,-2.062 7.688,-3c2.437,-0.937 4.875,-1.406 7.406,-1.406c2.906,0 5.25,1.031 7.125,3c1.875,1.969 2.812,5.062 2.812,9.281l0,21.188c0,2.156 0.188,3.75 0.469,4.781c0.281,1.031 0.844,1.875 1.688,2.344c-0.75,-0.188 -1.5,-0.375 -2.157,-0.657c-0.656,-0.187 -1.5,-0.281 -2.531,-0.281c-1.219,0 -2.25,0.094 -2.906,0.375c-0.656,0.281 -1.5,0.469 -2.438,0.563c0.657,-0.375 1.125,-0.75 1.594,-1.219c0.469,-0.375 0.844,-0.938 1.125,-1.594c0.281,-0.656 0.469,-1.406 0.563,-2.437c0.093,-0.938 0.093,-2.157 0.093,-3.563l0,-16.312Zm-28.218,-31.313c0,-1.594 -0.094,-2.906 -0.375,-3.844c-0.282,-0.937 -0.844,-1.687 -1.5,-2.156c1.125,-0.281 2.156,-0.469 3,-0.562c0.843,-0.094 2.062,-0.094 3.468,-0.094l0,56.062c0,2.157 0.188,3.75 0.563,4.688c0.375,1.031 1.031,1.687 1.875,2.062c-0.844,-0.093 -1.594,-0.281 -2.344,-0.468c-0.844,-0.094 -1.687,-0.188 -2.625,-0.188c-1.031,0 -1.875,0.094 -2.625,0.281c-0.75,0.282 -1.594,0.469 -2.531,0.563c1.031,-0.469 1.875,-1.313 2.344,-2.344c0.468,-1.031 0.75,-2.719 0.75,-5.156l0,-48.844Z" style="fill:#996d23;fill-rule:nonzero;"/><path d="M1037.98,49.598c0,-0.281 -0.094,-0.562 -0.188,-0.844c-0.187,-0.281 -0.468,-0.375 -0.75,-0.375c-0.656,0 -1.875,0.094 -3.468,0.282c-1.594,0.187 -3.282,0.468 -4.969,0.75c-1.781,0.281 -3.281,0.656 -4.594,1.125c-1.312,0.468 -1.969,0.937 -1.969,1.406c0,0.375 0.188,0.656 0.657,0.844c0.843,-0.094 1.5,-0.094 2.062,-0.188l1.688,0c1.218,0 1.968,0.469 2.343,1.5c0.282,1.031 0.469,2.063 0.469,3.281l0,27.563c0,2.812 -0.562,4.594 -1.594,5.437c-1.125,0.844 -3,1.407 -5.531,1.5c-0.281,0.188 -0.469,0.469 -0.469,0.75c0,0.375 0.188,0.657 0.563,0.844c2.156,-0.094 4.031,-0.094 5.719,-0.187c1.687,-0.094 3.375,-0.094 5.156,-0.094c1.781,0 3.562,0 5.344,0.094c1.687,0.093 3.656,0.093 5.812,0.187c0.281,-0.187 0.469,-0.469 0.469,-0.75c0,-0.281 -0.188,-0.562 -0.469,-0.75c-2.156,-0.094 -3.656,-0.656 -4.687,-1.594c-1.032,-0.937 -1.594,-2.718 -1.594,-5.25l0,-27.843c1.594,-0.282 3.281,-0.469 4.969,-0.657c1.593,-0.093 3.468,-0.187 5.437,-0.187c3.563,0 6,0.937 7.219,2.719c1.219,1.875 1.875,4.5 1.875,7.875l0,17.437c0,1.594 -0.094,2.813 -0.375,3.75c-0.281,0.938 -0.75,1.688 -1.313,2.156c-0.562,0.563 -1.312,0.938 -2.156,1.125c-0.844,0.188 -1.875,0.282 -3.094,0.375c-0.281,0.282 -0.468,0.563 -0.468,0.75c0,0.282 0.187,0.563 0.468,0.844c1.125,0 2.157,0 3,-0.094c0.844,0 1.594,0 2.344,-0.093c0.656,0 1.406,0 2.156,-0.094l2.438,0c1.594,0 3.562,0 5.719,0.094c2.156,0.093 4.125,0.093 6.093,0.187c0.282,-0.187 0.469,-0.469 0.469,-0.75c0,-0.281 -0.094,-0.469 -0.375,-0.75c-2.062,-0.187 -3.656,-0.75 -4.687,-1.594c-1.032,-0.843 -1.594,-2.625 -1.594,-5.343l0,-21.469c0,-1.125 0,-2.25 -0.094,-3.281c-0.094,-1.032 -0.281,-2.063 -0.562,-3.094c1.593,-0.281 3.093,-0.469 4.687,-0.563c1.5,-0.093 3.188,-0.187 5.156,-0.187c3.563,0 6,0.937 7.219,2.719c1.219,1.875 1.875,4.5 1.875,7.875l0,17.437c0,1.594 -0.094,2.813 -0.375,3.75c-0.281,0.938 -0.75,1.688 -1.312,2.156c-0.563,0.563 -1.313,0.938 -2.157,1.125c-0.937,0.188 -1.968,0.282 -3.187,0.375c-0.281,0.282 -0.375,0.469 -0.375,0.75c0,0.282 0.094,0.563 0.375,0.844c1.125,0 2.156,0 3,-0.094c0.844,0 1.594,0 2.344,-0.093c0.656,0 1.406,0 2.156,-0.094l2.531,0c1.594,0 3.469,0 5.625,0.094c2.156,0.093 4.219,0.093 6.188,0.187c0.281,-0.187 0.468,-0.469 0.468,-0.75c0,-0.281 -0.093,-0.469 -0.375,-0.75c-2.156,-0.187 -3.75,-0.75 -4.781,-1.594c-1.031,-0.843 -1.594,-2.625 -1.594,-5.343l0,-21.469c0,-2.063 -0.187,-4.031 -0.562,-5.906c-0.375,-1.782 -1.031,-3.375 -1.875,-4.782c-0.938,-1.406 -2.156,-2.437 -3.656,-3.281c-1.594,-0.844 -3.469,-1.219 -5.813,-1.219c-3.094,0 -6,0.563 -8.719,1.688c-2.718,1.219 -5.343,2.625 -7.875,4.219c-0.843,-1.782 -2.156,-3.282 -3.75,-4.313c-1.593,-1.031 -3.75,-1.594 -6.468,-1.594c-2.719,0 -5.438,0.469 -7.969,1.5c-2.625,1.032 -5.344,2.344 -8.25,4.125l0,-4.406Zm47.719,17.438c0,-4.032 -0.75,-6.938 -2.344,-8.907c-1.594,-1.875 -4.313,-2.812 -7.969,-2.812c-2.062,0 -3.844,0.094 -5.344,0.281c-1.593,0.281 -3.093,0.469 -4.687,0.656c1.781,-0.843 3.375,-1.5 4.781,-2.062c1.406,-0.563 2.625,-1.031 3.844,-1.406c1.125,-0.375 2.25,-0.657 3.281,-0.844c1.031,-0.094 2.156,-0.188 3.188,-0.188c2.906,0 5.25,0.938 7.031,2.907c1.781,1.968 2.719,5.062 2.719,9.187l0,21.188c0,2.156 0.187,3.75 0.468,4.781c0.282,1.031 0.844,1.875 1.688,2.344c-0.75,-0.188 -1.5,-0.375 -2.25,-0.657c-0.75,-0.187 -1.594,-0.281 -2.438,-0.281c-1.218,0 -2.25,0.094 -2.906,0.375c-0.656,0.281 -1.5,0.469 -2.437,0.563c0.656,-0.375 1.125,-0.75 1.593,-1.219c0.469,-0.375 0.844,-0.938 1.125,-1.594c0.282,-0.656 0.469,-1.406 0.563,-2.437c0.094,-0.938 0.094,-2.157 0.094,-3.563l0,-16.312Zm-26.907,0c0,-4.032 -0.75,-6.938 -2.343,-8.907c-1.594,-1.875 -4.219,-2.812 -7.969,-2.812c-2.063,0 -3.844,0.094 -5.438,0.281c-1.593,0.281 -3.187,0.469 -4.781,0.656c3.094,-1.312 5.906,-2.437 8.25,-3.281c2.344,-0.844 4.688,-1.219 7.125,-1.219c2.813,0 5.156,1.032 6.938,3c1.781,2.063 2.718,5.157 2.718,9.282l0,21c0,2.156 0.188,3.75 0.469,4.781c0.281,1.031 0.938,1.875 1.781,2.344c-0.843,-0.282 -1.593,-0.469 -2.25,-0.657c-0.656,-0.187 -1.5,-0.281 -2.531,-0.281c-1.219,0 -2.062,0.094 -2.719,0.375c-0.656,0.281 -1.5,0.469 -2.531,0.563c0.656,-0.375 1.125,-0.75 1.594,-1.219c0.469,-0.375 0.75,-0.938 1.031,-1.594c0.281,-0.656 0.469,-1.406 0.563,-2.437c0.093,-0.938 0.093,-2.157 0.093,-3.563l0,-16.312Zm-28.218,-9.282c0,-1.593 -0.094,-2.906 -0.282,-3.937c-0.281,-0.938 -0.75,-1.688 -1.593,-2.156c1.031,-0.188 2.062,-0.375 3,-0.469c0.937,-0.094 2.156,-0.094 3.562,-0.094l0,34.031c0,2.157 0.188,3.75 0.563,4.688c0.281,1.031 0.937,1.687 1.781,2.062c-0.656,-0.093 -1.406,-0.281 -2.25,-0.468c-0.844,-0.094 -1.688,-0.188 -2.719,-0.188c-1.031,0 -1.875,0.094 -2.625,0.281c-0.75,0.282 -1.594,0.469 -2.531,0.563c1.031,-0.469 1.875,-1.313 2.344,-2.344c0.468,-1.031 0.75,-2.719 0.75,-5.156l0,-26.813Z" style="fill:#996d23;fill-rule:nonzero;"/><path d="M1139.14,69.286c1.125,0 2.063,-0.188 2.719,-0.657c0.656,-0.375 1.031,-1.406 1.031,-3c0,-2.437 -0.281,-4.687 -0.844,-6.843c-0.656,-2.157 -1.593,-3.938 -2.812,-5.532c-1.313,-1.593 -2.906,-2.812 -4.875,-3.656c-1.969,-0.844 -4.406,-1.312 -7.219,-1.312c-3.469,0 -6.656,0.656 -9.469,1.968c-2.906,1.313 -5.343,3.094 -7.312,5.25c-1.969,2.25 -3.563,4.875 -4.594,7.782c-1.125,3 -1.687,6.187 -1.687,9.562c0,3 0.468,5.813 1.5,8.438c0.937,2.718 2.343,4.968 4.125,6.937c1.781,1.969 3.937,3.469 6.468,4.594c2.532,1.125 5.344,1.687 8.438,1.687c1.875,0 3.656,-0.281 5.25,-0.75c1.594,-0.468 3.094,-1.031 4.5,-1.781c1.406,-0.656 2.625,-1.5 3.844,-2.437c1.125,-0.844 2.25,-1.782 3.281,-2.719c0,-0.656 -0.188,-1.313 -0.563,-1.781c-0.375,-0.469 -0.843,-0.844 -1.312,-0.938c-1.219,0.656 -2.25,1.219 -3.188,1.688c-0.937,0.468 -1.875,0.937 -2.718,1.218c-0.938,0.375 -1.875,0.657 -2.813,0.844c-1.031,0.188 -2.062,0.281 -3.281,0.281c-2.531,0 -4.781,-0.562 -6.563,-1.593c-1.781,-1.032 -3.281,-2.344 -4.406,-4.125c-1.219,-1.688 -2.062,-3.657 -2.531,-5.907c-0.563,-2.156 -0.844,-4.5 -0.938,-6.937l25.969,-0.281Zm-25.875,-2.719c0.281,-1.594 0.656,-3.094 1.313,-4.594c0.656,-1.5 1.406,-2.812 2.437,-4.031c0.938,-1.219 2.063,-2.156 3.375,-2.906c1.219,-0.75 2.719,-1.125 4.313,-1.125c1.5,0 2.812,0.281 3.937,0.75c1.125,0.562 2.063,1.312 2.813,2.25c0.75,0.937 1.312,1.968 1.781,3.187c0.375,1.219 0.562,2.531 0.562,3.844c0,0.469 -0.093,0.75 -0.281,0.844c-0.281,0.187 -0.469,0.281 -0.75,0.281l-19.5,1.5Zm5.344,1.312l13.312,-1.312c2.063,-0.188 3.094,-1.031 3.094,-2.438c0,-1.593 -0.187,-3 -0.562,-4.406c-0.469,-1.406 -1.125,-2.625 -1.969,-3.656c-0.844,-1.031 -1.969,-1.781 -3.281,-2.438c-1.313,-0.656 -2.907,-0.937 -4.782,-0.937c-2.156,0 -4.125,0.469 -5.906,1.406c-1.781,1.031 -3.281,2.25 -4.5,3.844c-1.219,1.594 -2.25,3.469 -2.906,5.531c-0.656,2.156 -1.031,4.313 -1.031,6.563c0,2.718 0.281,5.25 0.937,7.781c0.656,2.531 1.594,4.687 3,6.562c1.406,1.969 3.188,3.469 5.344,4.594c2.156,1.219 4.687,1.781 7.781,1.781c1.406,0 2.813,-0.187 4.406,-0.562c1.5,-0.281 2.813,-0.656 3.844,-1.031c-1.219,1.031 -2.719,1.968 -4.594,2.718c-1.968,0.844 -4.031,1.219 -6.187,1.219c-2.906,0 -5.531,-0.562 -7.875,-1.594c-2.344,-1.031 -4.406,-2.437 -6.094,-4.218c-1.687,-1.782 -3,-3.938 -3.844,-6.469c-0.937,-2.438 -1.406,-5.063 -1.406,-7.969c0,-2.906 0.469,-5.719 1.5,-8.437c0.938,-2.719 2.25,-5.063 4.031,-7.125c1.688,-2.063 3.75,-3.75 6.094,-4.969c2.344,-1.219 4.969,-1.875 7.875,-1.875c2.719,0 4.969,0.469 6.844,1.312c1.781,0.938 3.281,2.157 4.406,3.563c1.125,1.5 1.969,3.094 2.438,4.875c0.468,1.781 0.75,3.562 0.75,5.25c0,1.031 -0.188,1.781 -0.563,2.156c-0.375,0.375 -1.031,0.563 -2.062,0.563l-18.094,-0.282Z" style="fill:#996d23;fill-rule:nonzero;"/><path d="M1163.23,49.411c0,-0.282 -0.094,-0.469 -0.188,-0.75c-0.187,-0.188 -0.468,-0.282 -0.75,-0.282c-0.656,0 -1.875,0.094 -3.468,0.282c-1.594,0.187 -3.282,0.468 -4.969,0.75c-1.781,0.281 -3.281,0.656 -4.594,1.125c-1.312,0.468 -1.969,0.937 -1.969,1.406c0,0.375 0.188,0.656 0.563,0.844c0.844,-0.094 1.594,-0.094 2.156,-0.188l1.594,0c1.219,0 1.969,0.469 2.344,1.5c0.375,1.031 0.562,2.063 0.562,3.281l0,27.563c0,2.812 -0.562,4.594 -1.594,5.437c-1.125,0.844 -3,1.407 -5.531,1.5c-0.281,0.188 -0.469,0.469 -0.469,0.75c0,0.375 0.188,0.657 0.563,0.844c2.156,-0.094 4.031,-0.094 5.719,-0.187c1.687,-0.094 3.375,-0.094 5.156,-0.094c1.781,0 3.562,0 5.344,0.094c1.687,0.093 3.656,0.093 5.812,0.187c0.281,-0.187 0.469,-0.469 0.469,-0.75c0,-0.281 -0.188,-0.562 -0.469,-0.75c-2.156,-0.094 -3.656,-0.656 -4.687,-1.594c-1.032,-0.937 -1.594,-2.718 -1.594,-5.25l0,-27.937c1.594,-0.281 3.281,-0.469 4.875,-0.563c1.594,-0.093 3.469,-0.187 5.531,-0.187c3.563,0 6,0.937 7.219,2.719c1.219,1.875 1.875,4.5 1.875,7.875l0,17.437c0,1.594 -0.094,2.813 -0.375,3.75c-0.281,0.938 -0.75,1.688 -1.313,2.156c-0.562,0.563 -1.312,0.938 -2.156,1.125c-0.937,0.188 -1.969,0.282 -3.187,0.375c-0.282,0.282 -0.375,0.469 -0.375,0.75c0,0.094 0.187,0.375 0.468,0.844c1.125,0 2.063,0 2.907,-0.094c0.843,0 1.593,0 2.343,-0.093c0.657,0 1.407,0 2.157,-0.094l2.531,0c1.594,0 3.469,0 5.625,0.094c2.156,0.093 4.219,0.093 6.187,0.187c0.282,-0.187 0.469,-0.469 0.469,-0.75c0,-0.281 -0.094,-0.469 -0.375,-0.75c-2.156,-0.187 -3.75,-0.75 -4.781,-1.594c-1.031,-0.843 -1.594,-2.625 -1.594,-5.343l0,-21.469c0,-2.063 -0.187,-4.031 -0.562,-5.906c-0.375,-1.782 -1.032,-3.375 -1.875,-4.782c-0.938,-1.406 -2.157,-2.437 -3.657,-3.281c-1.593,-0.844 -3.468,-1.219 -5.812,-1.219c-2.719,0 -5.344,0.469 -7.875,1.5c-2.625,1.032 -5.344,2.344 -8.25,4.125l0,-4.593Zm20.812,17.625c0,-4.219 -0.75,-7.219 -2.343,-9.094c-1.594,-1.781 -4.407,-2.719 -8.344,-2.719c-1.5,0 -3.188,0.094 -4.969,0.281c-1.781,0.282 -3.469,0.469 -4.875,0.563c2.625,-1.031 5.156,-2.063 7.594,-3c2.437,-0.938 4.969,-1.406 7.5,-1.406c2.906,0 5.25,1.031 7.125,3c1.875,1.968 2.812,5.062 2.812,9.187l0,21.188c0,2.156 0.188,3.75 0.469,4.781c0.281,1.031 0.844,1.875 1.688,2.344c-0.75,-0.188 -1.5,-0.375 -2.25,-0.657c-0.75,-0.187 -1.594,-0.281 -2.438,-0.281c-1.219,0 -2.25,0.094 -2.906,0.375c-0.656,0.281 -1.5,0.469 -2.438,0.563c0.657,-0.375 1.125,-0.75 1.594,-1.219c0.469,-0.375 0.844,-0.938 1.125,-1.594c0.281,-0.656 0.469,-1.406 0.563,-2.437c0.093,-0.938 0.093,-2.157 0.093,-3.563l0,-16.312Zm-28.218,-9.282c0,-1.593 -0.094,-2.906 -0.375,-3.937c-0.282,-0.938 -0.844,-1.688 -1.5,-2.156c1.125,-0.188 2.156,-0.375 3,-0.469c0.843,-0.094 2.062,-0.094 3.468,-0.094l0,34.031c0,2.157 0.188,3.75 0.563,4.688c0.375,1.031 1.031,1.687 1.875,2.062c-0.844,-0.093 -1.594,-0.281 -2.344,-0.468c-0.844,-0.094 -1.687,-0.188 -2.625,-0.188c-1.031,0 -1.875,0.094 -2.625,0.281c-0.75,0.282 -1.594,0.469 -2.531,0.563c1.031,-0.469 1.875,-1.313 2.344,-2.344c0.468,-1.031 0.75,-2.719 0.75,-5.156l0,-26.813Z" style="fill:#996d23;fill-rule:nonzero;"/><path d="M79.543,0.345c-5.743,0.781 -11.343,1.231 -16.99,2.741c-14.188,3.706 -27.194,11.371 -37.688,21.587c-6.922,6.75 -12.303,14.894 -16.609,23.506c-4.022,8.06 -6.538,17.01 -7.606,25.925c-1.316,11.028 -0.675,22.375 2.306,33.113c11.234,40.459 51.431,66.825 92.928,61.369c40.222,-5.288 71.419,-39.963 73.188,-80.322c1.75,-40.778 -27.441,-78.332 -67.525,-86.356c-6.979,-1.394 -14.891,-2.494 -22.004,-1.563Z" style="fill:#2b2e31;fill-rule:nonzero;"/><path d="M57.559,37.723l0.872,0.653l1.306,-1.74l-1.087,2.612l0.653,1.088l0.434,0c2.397,-3.875 6.191,-7.241 9.585,-10.238c2.296,-2.044 4.293,-3.656 7.409,-2.831l0.216,0.219c0.628,1.765 0.615,6.34 2.612,6.968l0.219,18.738c0.503,1.7 0.178,3.7 0.219,5.444c0.084,3.315 0.734,7.456 -0.219,10.675l0.219,0.434c-1.097,2.616 -0.735,6.756 -1.15,9.587c-1.607,11.157 -1.029,22.11 -1.029,33.329l0,10.675c0,1.459 -0.346,3.443 0.219,4.793l0,0.216c-0.725,2.359 0.1,5.969 -0.009,8.497c-0.147,3.322 -0.813,6.769 -1.472,10.022c-0.522,2.568 -1.175,5.228 0.278,7.625c3.131,5.225 14.9,4.484 16.444,-1.744c0.522,-2.109 -0.072,-4.034 -0.444,-6.1c-0.656,-3.634 -1.466,-7.406 -1.509,-11.109c-0.138,-11.604 0.434,-23.232 0.434,-34.857c0,-4.3 0.372,-8.565 -0.034,-12.85c-0.794,-8.343 -2.36,-16.422 -2.36,-24.837c0,-2.616 -0.531,-5.959 0.219,-8.494c-0.219,-3.853 0.106,-7.934 0.472,-11.766c0.25,-2.65 0.616,-5.484 -0.256,-8.059l0.653,-0.219c0.972,-2.518 1.472,-5.356 1.525,-8.059c2.456,-1.147 4.359,-2.025 7.19,-1.703c2.063,0.234 3.704,1.431 5.663,1.966c1.525,0.421 3.256,0.171 4.794,-0.044c1.668,-1.875 1.303,-3.878 1.959,-6.1l-0.219,-0.438l0,-4.575c-4.006,-3.047 -9.665,0.147 -14.159,-0.215c-2.228,-0.21 -4.006,-1.41 -6.1,-1.96c-2.009,-0.562 -4.463,-0.519 -6.534,-0.428c-2.691,0.116 -5.985,0.219 -8.497,1.297c-6.982,2.891 -11.591,9.734 -15.097,16.119c-1.285,2.343 -2.681,4.828 -3.419,7.409Z" style="fill:#fff;fill-rule:nonzero;"/></svg>